<?xml version="1.0" encoding="utf-8"?>
<!-- Generator: Adobe Illustrator 27.5.0, SVG Export Plug-In . SVG Version: 6.00 Build 0)  -->
<svg version="1.1" id="Layer_2_00000058555125983230755860000003638542420063517076_"
	 xmlns="http://www.w3.org/2000/svg" xmlns:xlink="http://www.w3.org/1999/xlink" x="0px" y="0px" viewBox="0 0 24.6 25.2"
	 style="enable-background:new 0 0 24.6 25.2;" xml:space="preserve">
<style type="text/css">
	.st0{fill:none;stroke:#D5E4CD;stroke-width:0.8;stroke-linejoin:round;}
</style>
<path class="st0" d="M14.9,8.9c-0.2-0.2-0.5-0.5-1-0.7c-1.5-0.7-3,0.1-3.3,0.2c-1.7,0.8-2.2,2.5-2.3,2.8c-0.4,1.4-0.3,3.3,0.9,4.6
	c1.7,1.8,5,1.3,6.8-0.4c0,0,2.1-1.9,1.5-5.3c0-0.3-0.2-1.1-0.5-1.2c-0.1,0-0.3,0-0.7,0.6c-0.7,1.1-1.2,3-0.6,5
	c0.2,0.7,0.5,1.5,1.2,2.1c0.1,0.1,1.1,0.9,2.2,0.8c2-0.2,2.9-3.4,3-3.9c0.7-2.5,0.4-6.1-1.7-8.5C17,1.2,9.6,1.1,5.4,5.4
	C2,8.9,1.4,14.8,4.5,19c3.3,4.4,9.9,5.5,14.8,2.2"/>
</svg>
