<?xml version="1.0" encoding="UTF-8"?><svg id="Layer_2" xmlns="http://www.w3.org/2000/svg" viewBox="0 0 22.76 17.36"><defs><style>.cls-1{fill:none;stroke:#82a183;stroke-linecap:round;stroke-linejoin:round;stroke-width:.8px;}</style></defs><path class="cls-1" d="m15.34,14.56c.34-.14,2.17-.97,2.92-3.03.68-1.86.21-3.93-1.01-5.26-1.86-2.04-5.47-2.39-7.71-.27-2.27,2.16-1.82,5.65-.37,7.44,1.13,1.4,2.81,1.68,5.06,2.05,2.97.49,5.46.15,7.01-.19.16-2.79.25-5.33.32-7.66.02-.84.05-2.33-.9-3.23-.14-.13-.6-.56-1.28-.59-.05,0-1.15-.04-1.38.64-.12.35.04.83.43,1.06.45.26,1.05.11,1.28-.27.19-.3.09-.72-.06-.99-.42-.74-1.29-.43-2.37-1.15-.88-.58-.62-.98-1.47-1.5-.84-.51-1.71-.5-2.58-.49-.9.01-1.73.02-2.52.53-.94.6-.69,1.16-1.62,1.82-.76.53-1.53.6-2.92.67-.85.04-1.61-.01-2.34-.38-.3-.15-.65-.36-.63-.54.09-.57,3.79-.69,3.92-.13.05.23-.49.57-.86.73-1.03.44-1.91-.06-3.19.27-.16.04-.42.12-.67.33-.3.26-.42.6-.49.81-.56,1.88-.28,7.02-.27,8.71,0,.28,0,.96.46,1.34.4.34.97.27,1.17.24,1.09-.12,3.09-.07,6.09.13"/></svg>