<?xml version="1.0" encoding="UTF-8"?><svg id="Layer_2" xmlns="http://www.w3.org/2000/svg" viewBox="0 0 21.27 22.33"><defs><style>.cls-1{fill:none;stroke:#82a183;stroke-linecap:round;stroke-linejoin:round;stroke-width:.8px;}</style></defs><path class="cls-1" d="m7.26,1.75c-.52-.47-1.29-.54-1.87-.19-.57.34-.92,1.06-.74,1.56.09.26.4.67,2.58.94,3.09.38,4.73-.16,5.09.54.18.36-.03.95-.38,1.21-.62.46-1.46-.24-3.67-.49-1.36-.16-1.74.03-1.94.26-.29.33-.36.92-.11,1.27.28.39.84.31,2,.33,1.9.04,3,.07,3.72.76.05.05.74.74.57,1.43-.29,1.16-2.87,1.7-4.89,1.15-.86-.23-2.36-.87-2.3-1.46.11-.99,4.54-.87,6.22-.64.57.08,1.22.22,1.5.71.07.11.16.46.33,1.14.16.6.21.73.33.81.26.17.58,0,.91-.05.97-.12,1.87.99,2,1.14,1.2,1.49.7,4.13-.62,5.1-.12.09-.89.65-1.52.38-.27-.12-.55-.4-.52-.67.03-.23.28-.33.62-.57.49-.35.88-.77,1.05-1.05.36-.56.51-1.57-.05-2.24-.46-.55-1.37-.82-1.86-.48-.27.19-.37.53-.43,1.33-.15,1.97.21,2.85.05,4.53-.08.8-.12,1.21-.43,1.62-.51.68-1.3.83-2.53,1.05-1.95.36-3.24.03-3.81-.14-.73-.23-1.09-.48-1.33-.81-.38-.51-.38-1.1-.38-1.33-.01-1.29-.07-4.46-.1-8.72"/></svg>