<?xml version="1.0" encoding="UTF-8"?><svg id="Layer_2" xmlns="http://www.w3.org/2000/svg" viewBox="0 0 33.19 24.55"><defs><style>.cls-1{fill:none;stroke:#82a183;stroke-linecap:round;stroke-linejoin:round;stroke-width:.8px;}</style></defs><path class="cls-1" d="m29.56,19.37c.43.28.99.73,1.54,1.38.49.6.8,1.17,1,1.62-8.3.37-13.6.34-17,.23-1.27-.04-6.18-.22-12.85-.23-.49,0-.89,0-1.15,0,1.26-1.33,2.51-2.67,3.77-4,3.64-.06,7.33-.08,11.08-.08,4.33,0,8.59.06,12.77.15.17-3.23.22-5.89.23-7.85,0-2.14-.03-3.65-.15-5.31-.07-1.01-.16-1.86-.23-2.46-5.29-.07-9.27,0-12,.08-2.01.06-5.36.19-9.92-.08-.94-.05-1.71-.11-2.23-.15-.03,2.44-.01,4.98.08,7.62.07,2.19.19,4.31.34,6.37l22.28-.28c-.01-1.93,0-3.88,0-5.85.01-2,.04-3.97.08-5.92-3.77-.02-7.62,0-11.54.08-3.17.06-6.29.15-9.35.27.09,3.33.18,6.66.27,9.99"/></svg>