<?xml version="1.0" encoding="UTF-8"?><svg id="Layer_2" xmlns="http://www.w3.org/2000/svg" viewBox="0 0 22.97 25.27"><defs><style>.cls-1{fill:none;stroke:#82a183;stroke-linecap:round;stroke-linejoin:round;stroke-width:.8px;}</style></defs><path class="cls-1" d="m8.3,3.09c-.14-.21-1.1-1.65-2.96-1.88-.18-.02-2.21-.24-3.49,1.28-1.23,1.45-1.05,3.65,0,4.97,1.09,1.37,2.86,1.45,3.43,1.48,1.18.06,2.08-.3,2.35-.4,1.46-.55,4.21-.97,9.95-.27-.29.5-.76,1.21-1.48,1.95-.93.96-2.04,2.09-3.56,2.08-.73,0-1.26-.29-2.08-.74-.52-.28-1.41-.83-2.62-2.15-.77-.83-1.81-2.13-2.76-3.96.98-.28,2.3-.61,3.9-.87.65-.11,1.78-.29,3.27-.4,0,0,3.69-.25,7.48.93.32.1.89.29,1.14.81.19.38.14.82,0,1.28-.45,1.43-1.63,2.4-2.08,2.76-3.32,2.65-5.2,3.25-5.32,4.87,0,.05,0,0,.04.61.1,1.67.09,2.54.15,4.39.07,1.86.12,2.11.29,2.43.57,1.07,1.63,1.45,1.79,1.51,1.3.45,2.86.02,2.92-.43.06-.53-1.95-1.19-3.05-1.45-1.18-.28-2.13-.27-2.44-.27-2.27.04-4.78.87-4.73,1.41.03.29.83.64,4.31.84"/></svg>