<?xml version="1.0" encoding="UTF-8"?><svg id="Layer_2" xmlns="http://www.w3.org/2000/svg" viewBox="0 0 22.67 20.83"><defs><style>.cls-1{fill:none;stroke:#82a183;stroke-linecap:round;stroke-linejoin:round;stroke-width:.8px;}</style></defs><path class="cls-1" d="m7.77,5.72c.35-.48,1.27-1.63,2.43-1.62.12,0,.68,0,.79.27.08.2-.13.45-.58.95-1.13,1.25-1.72,1.77-1.6,2,.05.09.19.11.26.11,1.67.12,5.88-.04,5.88-.04,1.3-.05,1.91.05,2.13.44.13.24.1.57-.03.79-.28.49-.99.53-2.49.63-.56.04-1.48.1-2.67.2.5.1.85.57.79,1.08-.05.51-.49.89-1,.89.03,0,.42.07.58.45.08.18.09.44-.04.64-.17.27-.53.4-.89.29.07.02.48.15.57.5.08.27-.08.52-.14.61-.27.42-.92.65-3.25.72-2.24.06-2.66-.12-2.94-.29-.72-.44-1.08-1.12-1.25-1.54,0-1.38,0-5.53,0-4.14v4.93c-.08.6-.34.83-.47.91-.27.18-.48.07-1.42.05-.89-.02-1.03.07-1.22-.07-.3-.23-.24-.67-.2-1.73.04-1.09.04-2.18.08-3.27.04-.89.05-1.34.39-1.57.08-.05.23-.14.98-.11,1.15.05,1.27.29,1.74.19.44-.1.55-.35,1.4-1.11.54-.48,1-.83,1.29-1.04.02-1.51.04-3.02.07-4.53,2.23-.07,4.03-.02,5.26.04,2.48.11,4.53.34,7.56.04.51-.05.93-.1,1.2-.14-.06,2.94-.09,5.38-.11,7.17-.03,3.53-.03,6.79-.04,9.26,0,.41,0,.89,0,1.27-1.43.13-2.59.18-3.36.21-2.7.1-4.18-.03-9.01-.04-.54,0-.97,0-1.24,0v-3.6"/></svg>