<?xml version="1.0" encoding="UTF-8"?><svg id="Layer_2" xmlns="http://www.w3.org/2000/svg" viewBox="0 0 23.48 20.61"><defs><style>.cls-1{fill:none;stroke:#82a183;stroke-linejoin:round;stroke-width:.8px;}</style></defs><path class="cls-1" d="m4.94,12.22c-.08.36-.26.87-.64,1.38-.91,1.2-2.3,1.43-2.64,1.47.18.09,1.73.86,3.17.09.53-.28.86-.68,1.05-.96.23.63.63,1.49,1.38,2.29,2.43,2.63,7.22,3.27,10.59,1.1,2.28-1.47,3.14-3.72,3.44-4.77.58-2.06.68-5.41-1.24-6.88-.7-.54-1.96-1.04-2.84-.55-.52.29-1.04,1-.83,1.47.16.35.69.51,1.1.41.63-.15.87-.87.96-1.15.35-1.05-.11-2.06-.23-2.29-1-1.99-3.78-2.29-4.31-2.34-2.33-.2-4.06.94-4.86,1.47-.28.19-2.59,1.75-3.48,4.58-.48,1.51-.14,2.06-.05,2.2.54.79,1.79.75,2.48.73,2.46-.07,4.1-1.66,4.36-1.93.33-.34,1.14-1.17,1.48-2.49.21-.82.37-2.29-.24-2.6-.12-.06-.36-.12-.84.11-1.37.66-1.98,2.35-2.27,3.24-1.36,4.17-1.12,8.11-1.1,7.98.22-1.63.76-2.7,1.15-3.3.5-.79.88-1.07,1.24-1.05.21,0,.46.12.6.32.23.35-.06.67-.12,1.5-.03.4-.06.98.26,1.52.12.21.39.65.78.69.88.08,1.7-1.89,1.93-2.43.25-.6.38-1.11.46-1.47-.04.56-.11,1.23-.2,1.97-.11.92-.17,1.2.01,1.51.31.53,1.09.73,1.7.64.81-.12,1.25-.75,1.33-.87"/></svg>