<?xml version="1.0" encoding="UTF-8"?><svg id="Layer_2" xmlns="http://www.w3.org/2000/svg" viewBox="0 0 23.2 24.1"><defs><style>.cls-1{fill:none;stroke:#d5e4cd;stroke-linejoin:round;stroke-width:.8px;}</style></defs><path class="cls-1" d="m21.42,6.77c.39,3.7.22,6.72-.02,8.83-.28,2.45-.66,3.65-1.61,4.55-.94.88-2.01,1.05-4.12,1.36-.67.1-3.09.42-7.66-.12-2.75-.32-4.14-.5-4.86-1.18-1.16-1.09-1.25-2.83-1.45-6.3-.08-1.32-.09-3.23.23-5.55.34-2.43.5-3.65,1.06-4.41,1.3-1.78,3.79-1.99,8.77-2.42.31-.03,2.7-.22,5.67.34,1.9.35,2.67.76,3.12,1.47.47.75.48,1.71.17,2.44-.61,1.48-2.63,2.3-3.84,1.63-.58-.32-1.15-1.09-.99-1.92.17-.86,1.09-1.53,2.04-1.39.76.12,1.48.76,1.51,1.62.03.71-.42,1.38-1.12,1.67"/><ellipse class="cls-1" cx="11.96" cy="11.58" rx="4.65" ry="4.4"/></svg>