<?xml version="1.0" encoding="UTF-8"?><svg id="Layer_2" xmlns="http://www.w3.org/2000/svg" viewBox="0 0 25 25"><defs><style>.cls-1{fill:none;stroke:#d5e4cd;stroke-linejoin:round;stroke-width:.76px;}</style></defs><path class="cls-1" d="m3.24,22.6c-.09-1.03-.09-4.6,2.25-6.67,1.97-1.78,5.45-2.35,5.91-2.44.28,0,.66-.09,1.31-.28,1.03-.28,2.35-.56,3.29-1.41.09-.09,1.88-1.6,1.88-3.85,0-2.53-2.16-5.35-5.26-5.35-2.82-.09-5.16,2.25-5.35,4.69-.19,1.97,1.13,3.47,1.31,3.76,1.22,1.41,2.82,1.78,4.04,2.16,1.13.28,1.22.09,2.16.38,3.1.75,4.98,3.19,5.26,3.47,1.69,2.16,1.88,4.51,1.88,5.35"/></svg>