<?xml version="1.0" encoding="UTF-8"?><svg id="Layer_2" xmlns="http://www.w3.org/2000/svg" viewBox="0 0 18.58 23.32"><defs><style>.cls-1{fill:none;stroke:#82a183;stroke-linecap:round;stroke-linejoin:round;stroke-width:.8px;}</style></defs><path class="cls-1" d="m9.87,1.76c.38.85.46,1.58.47,2.05,0,.34.06,2.34-.94,2.76-.26.11-.51.07-.71.04-.99-.16-1.56-1.09-1.89-1.61-.22-.36-.52-.95-.67-1.77.33.1.82.29,1.3.67.82.64,1.13,1.44,1.46,2.28.45,1.18,1.07,2.81.28,4.17-.08.14-.26.45-.59.71-1.61,1.29-4.49-.25-4.61-.31.96-.63,1.7-.7,2.17-.67.34.02.51.1,2.13.63.79.26,1.19.39,1.22.39,1.68.32,3.55-.91,4.57-2.2.28-.36.61-.87.87-1.54-.57-.05-1.9-.1-3.27.67-.4.22-1.87,1.04-2.35,2.68-.1.33-.13.65-.14.79-.09.81.04,1.24.14,2.25.15,1.43-.02,1.42.14,1.63.46.58,1.91.27,4.79-.41.13-.03.31-.07.31-.14.01-.25-2.21-.58-3.52-.72-.29-.03-2.31-.24-4.74.14-.57.09-1.21.22-1.53.72-.2.3-.19.59-.07,1.6,0,0,.28,2.36,1.08,4.55.01.04.05.12.12.22.19.24.49.29.62.31,1.53.25,4.75,0,5.39.05.06,0,.26.02.43-.1.18-.12.24-.32.26-.38.12-.38.78-2.28,1.68-4.89"/></svg>