<?xml version="1.0" encoding="UTF-8"?><svg id="Layer_2" xmlns="http://www.w3.org/2000/svg" viewBox="0 0 191.6 92.7"><defs><style>.cls-1{fill:none;stroke:#527043;stroke-linecap:round;stroke-linejoin:round;}.cls-2{fill:#23301d;}</style></defs><path class="cls-1" d="m23.5,6.7c-3,8.9-5.9,19.1-8.2,30.5-2.8,13.6-4.1,26-4.7,36.8,1.1-16.5,3.4-28.9,5.4-37.5.6-2.4.8-3.2,1-3.8,5.2-16.2,21.7-28.7,30.8-25.4.3.1,3.2,1.2,4.8,4,2.6,4.7-.1,10.6-.7,11.8-4.9,10.5-18.5,13.6-25.3,15.2s-12.7,1.7-17.1,1.4"/><path class="cls-1" d="m162.3,59.3c-3,3.4-3.9,7.6-2.3,10.5.2.4,1.3,2.2,3.4,2.9,2.9.9,5.7-1,6.8-1.8,5-3.4,7.8-10.8,5.7-16.6-.4-1-1.2-3.3-3.4-4.5-3.3-1.8-7.9-.3-10.4,2.6-2.5,2.8-3.4,7.5-1.4,10.4.3.4,1.5,2.1,5.2,2.9,8.4,1.8,16.4-4,18.9-5.9"/><path class="cls-1" d="m107.5,59.3c-3,3.4-3.9,7.6-2.3,10.5.2.4,1.3,2.2,3.4,2.9,2.9.9,5.7-1,6.8-1.8,5-3.4,7.8-10.8,5.7-16.6-.4-1-1.2-3.3-3.4-4.5-3.3-1.8-7.8-.3-10.4,2.6-2.5,2.8-3.4,7.5-1.4,10.4.3.4,1.5,2.1,5.2,2.9,8.5,1.9,16.6-4.2,18.6-5.7.3-.2.5-.4.6-.5"/><path class="cls-1" d="m24.1,59.3c-3,3.4-3.9,7.6-2.3,10.5.2.4,1.3,2.2,3.4,2.9,2.9.9,5.7-1,6.8-1.8,5-3.4,7.8-10.8,5.7-16.6-.4-1-1.2-3.3-3.5-4.5-3.3-1.8-7.9-.3-10.4,2.6-2.5,2.8-3.4,7.5-1.4,10.4,0,0,0,.1.1.1.2.3.6.7,1.2,1.1,0,0,2,1.5,5.2,1.8,2.9.3,9.8-1.6,17.8-6.1"/><path class="cls-1" d="m49.4,47.1c-1,5.3-2.1,10.7-3.3,16.2-1.1,4.8-2.4,9.6-2.2,9.7s1.2-3.7,3.3-8.7c1.5-3.4,2.9-6.2,3.9-7.9,2.2-4.2,3.5-5,4.4-4.9.8.1,1,1,2.6,2.7l.9.9s1.1,1,2.3,1.8c2.3,1.6,5.1,2.9,5.6,3.1"/><path class="cls-1" d="m78.1,20c-.5,1.7-1,3.3-1.5,5-.9,3-1.8,6.1-2.7,9.1,0,0-1.9,6.8-5.2,18.5-1.4,5.1-4.3,15.4-1.2,19.1.2.3.8,1,1.8,1.2,2.3.5,4.6-2.3,5.7-3.6,3.3-3.9,8.1-9.5,14-16.4"/><path class="cls-1" d="m52.9,34.2c4.5-1.5,9.8-2.9,15.8-3.8,6.8-1.1,12.8-1.5,18-1.4"/><path class="cls-1" d="m89,53c1.4-1.1,3.3-2.9,5.4-5.2,3.1-3.5,8.7-9.5,9.6-18,.5-4,.1-9.4-1.4-9.7-2.1-.5-5.9,9.1-7.2,12.2-1.2,2.9-1.9,5.3-3.4,10.1-1.4,4.6-2.4,8.1-2.7,9.3-1.5,5.4-2.5,9.9-3.3,13.7-.4,2.1-1,5.9-2.2,13.6-1,6.3-1.3,8.9-.2,9.4,1,.5,3-1.1,3.9-2.9,1.9-3.7-1.4-8.2-1.9-8.9-1.1-1.5-2.3-2.4-3.1-3"/><path class="cls-1" d="m81.4,68c5.6.8,14.5,1,22.2-4.2.7-.5,1.3-1,2-1.5"/><path class="cls-1" d="m149,52.3c-2,4.3-5.7,10.6-12,16.7-3.1,2.9-4.6,4.4-5.7,3.9-4.2-1.7,1.4-25.6,4.3-36.4,1.9-7,3.9-12.7,5.3-16.5"/><path class="cls-1" d="m150.1,50.1c-1.7,3.1-3.8,7.6-5,13.4-.8,3.6-1.8,8.4,0,9.4,1.7,1,5.4-1.9,9.6-5.4,2.5-2,4.3-3.8,5.5-5"/><ellipse class="cls-1" cx="151.5" cy="43.4" rx="1.2" ry="1.5"/><path class="cls-2" d="m92.67,84.54v-7.37h.5v4.06l4.3-4.06h.63l-3.17,3.07,3.3,4.3h-.61l-3.07-3.96-1.39,1.27v2.7h-.5Z"/><path class="cls-2" d="m100.73,84.29c-.37-.3-.56-.65-.56-1.07s.18-.75.55-1.04c.36-.3.8-.47,1.34-.52.52-.05.95-.13,1.28-.25.34-.12.51-.25.51-.41v-.47c0-.27-.15-.5-.45-.7-.29-.19-.65-.29-1.07-.29-.4,0-.74.09-1.03.27-.28.19-.42.41-.42.67v.27h-.47v-.32c0-.36.19-.66.56-.91.38-.25.84-.37,1.37-.37s1.01.12,1.4.36c.39.24.58.53.58.87v3.21c0,.21.04.39.14.53.09.15.2.22.34.22.04,0,.08,0,.11-.01.03,0,.06-.02.08-.04v.24c-.12.06-.28.09-.47.09s-.36-.08-.5-.25c-.13-.17-.2-.36-.2-.6-.1.28-.31.51-.63.68-.32.17-.7.26-1.12.26-.52,0-.96-.15-1.33-.43Zm2.5-.37c.34-.28.55-.64.62-1.08v-1.22c-.12.1-.33.18-.63.25-.29.07-.67.12-1.16.16-.39.03-.72.17-.98.4-.26.22-.4.49-.4.79s.14.58.41.79c.27.22.59.33.97.33.44,0,.83-.14,1.17-.43Z"/><path class="cls-2" d="m107.44,84.54v-5.29h.5v.89c.15-.31.36-.56.63-.75.27-.19.57-.29.88-.29.37,0,.7.1.98.3.29.21.48.47.56.78.16-.33.39-.59.71-.78.32-.2.67-.3,1.06-.3.47,0,.88.16,1.22.48.33.32.5.71.5,1.17v3.78h-.5v-3.78c0-.35-.12-.65-.36-.89-.23-.25-.52-.37-.86-.37-.39,0-.74.14-1.04.41s-.5.62-.57,1.04v3.59h-.5v-3.78c0-.35-.11-.65-.33-.89-.22-.25-.49-.37-.81-.37-.37,0-.71.15-1.01.44-.29.3-.48.67-.56,1.12v3.49h-.5Z"/><path class="cls-2" d="m117.49,77.17h.5v.76h-.5v-.76Zm0,7.37v-5.29h.5v5.29h-.5Z"/><path class="cls-2" d="m121.07,84.54v-7.37h.5v7.37h-.5Z"/><path class="cls-2" d="m124.66,84.54v-7.37h.5v7.37h-.5Z"/><path class="cls-2" d="m128.37,84.29c-.37-.3-.56-.65-.56-1.07s.18-.75.55-1.04c.36-.3.8-.47,1.34-.52.52-.05.95-.13,1.28-.25.34-.12.51-.25.51-.41v-.47c0-.27-.15-.5-.45-.7-.29-.19-.65-.29-1.07-.29-.4,0-.74.09-1.03.27-.28.19-.42.41-.42.67v.27h-.47v-.32c0-.36.19-.66.56-.91.38-.25.84-.37,1.37-.37s1.01.12,1.4.36c.39.24.58.53.58.87v3.21c0,.21.04.39.14.53.09.15.2.22.34.22.04,0,.08,0,.11-.01.03,0,.06-.02.08-.04v.24c-.12.06-.28.09-.47.09s-.36-.08-.5-.25c-.13-.17-.2-.36-.2-.6-.1.28-.31.51-.63.68-.32.17-.7.26-1.12.26-.52,0-.96-.15-1.33-.43Zm2.5-.37c.34-.28.55-.64.62-1.08v-1.22c-.12.1-.33.18-.63.25-.29.07-.67.12-1.16.16-.39.03-.72.17-.98.4-.26.22-.4.49-.4.79s.14.58.41.79c.27.22.59.33.97.33.44,0,.83-.14,1.17-.43Z"/><path class="cls-2" d="m140.55,84.54v-7.37h.5v3.22h4.45v-3.22h.5v7.37h-.5v-3.68h-4.45v3.68h-.5Z"/><path class="cls-2" d="m149.54,84.19c-.36-.32-.53-.71-.53-1.17v-3.78h.5v3.78c0,.34.13.63.38.88.26.24.57.36.93.36.43,0,.82-.17,1.16-.5.34-.33.55-.75.65-1.25v-3.27h.5v5.29h-.5v-.93c-.15.32-.39.58-.72.78-.32.19-.68.29-1.08.29-.5,0-.92-.16-1.28-.48Z"/><path class="cls-2" d="m156.21,84.54v-7.37h.5v3.07c.17-.36.41-.64.75-.86.32-.21.67-.32,1.06-.32.5,0,.92.19,1.28.56.36.36.53.81.53,1.33v3.59h-.5v-3.49c0-.43-.13-.8-.39-1.09-.26-.31-.57-.46-.93-.46-.41,0-.77.15-1.11.45-.34.29-.57.67-.7,1.14v3.45h-.5Z"/><path class="cls-2" d="m163.32,84.54v-5.29h.5v.89c.15-.31.38-.56.68-.75.31-.19.65-.29,1.02-.29.52,0,.96.17,1.33.51.37.35.56.76.56,1.24v3.68h-.5v-3.68c0-.36-.14-.67-.41-.93-.27-.26-.6-.39-.98-.39-.42,0-.78.14-1.11.42-.32.29-.52.65-.6,1.08v3.49h-.5Z"/><path class="cls-2" d="m170.41,84.54v-7.37h.5v4.82l2.83-2.75h.62l-2.04,1.94,2.27,3.35h-.52l-2.08-3.02-1.09,1.04v1.98h-.5Z"/><path class="cls-2" d="m177.33,83.96c-.43-.52-.65-1.21-.65-2.06s.22-1.54.65-2.06c.43-.51,1-.77,1.71-.77s1.28.24,1.71.71c.43.47.65,1.1.65,1.89v.24h-4.22c0,.72.17,1.3.51,1.73.34.43.79.65,1.35.65.42,0,.8-.11,1.14-.33.35-.23.59-.53.72-.91h.5c-.08.49-.35.89-.79,1.22-.45.32-.97.48-1.57.48-.71,0-1.28-.26-1.71-.77Zm3.58-2.53v-.19c-.04-.49-.24-.9-.6-1.24-.37-.33-.79-.5-1.27-.5s-.9.17-1.25.51c-.37.35-.57.77-.61,1.28v.14h3.73Z"/></svg>