<?xml version="1.0" encoding="UTF-8"?><svg id="Layer_2" xmlns="http://www.w3.org/2000/svg" viewBox="0 0 25 25"><defs><style>.cls-1{fill:none;stroke:#d5e4cd;stroke-linejoin:round;stroke-width:.78px;}.cls-2{opacity:.91;}</style></defs><g class="cls-2"><path class="cls-1" d="m5.97,22.38l15.64-.1c.58-6.08.68-12.45.19-18.92,0-.29,0-.58-.1-.77-.29,0-6.76-.29-12.16-.19-1.64,0-3.86.1-6.56.68h0c-.1,11.2-.1,16.41-.1,16.51h0c0,.58,7.91.19,16.31-.39,0-.29,0-.48.1-.77.19-3.19.19-6.18-.1-9.07-.48-.77-1.06-1.54-1.54-2.32-.97.68-1.64,1.25-2.12,1.74s-1.45,1.45-2.7,2.99c-.77.87-.97,1.25-1.45,1.25-.29,0-.58-.1-1.93-1.35-1.35-1.35-1.64-1.83-2.12-1.74-.39.1-.48.39-1.06,1.25-.58.87-1.16,1.64-1.54,2.12"/><circle class="cls-1" cx="8.29" cy="4.91" r="2.51"/></g></svg>