<?xml version="1.0" encoding="UTF-8"?><svg id="Layer_1" xmlns="http://www.w3.org/2000/svg" viewBox="0 0 25 43"><defs><style>.cls-1{fill:none;stroke:#23301d;stroke-linecap:round;stroke-linejoin:round;stroke-width:.8px;}</style></defs><path class="cls-1" d="m11.78,17.23c-2.09-.48-4.62-.75-7.42-.35-.85.12-1.32.25-1.54,0-.69-.77,1.69-4.55,10.64-14.43,8.34,11.08,9.76,14.37,9.1,14.99-.16.15-.32.01-1.68-.14-1.21-.14-1.55-.08-6.23-.07-.44,0-1.04,0-1.75,0-.18.74-.44,2-.63,3.57-.38,3.05.2,11.04.21,11.13h0c.24,3.3-.12,6.14-.98,8.56"/></svg>