<?xml version="1.0" encoding="UTF-8"?><svg id="Layer_2" xmlns="http://www.w3.org/2000/svg" viewBox="0 0 22.09 19.77"><defs><style>.cls-1{fill:none;stroke:#82a183;stroke-linecap:round;stroke-linejoin:round;stroke-width:.8px;}</style></defs><path class="cls-1" d="m15.01,1.6c.96.16,2.17.45,3.5,1.01,1.06.45,1.94.96,2.63,1.43,0,.28-.03.59-.09.92-.29,1.42-1.17,2.36-1.66,2.81-.59-.33-1.11-.48-1.47-.55-.6-.13-1.05-.22-1.38.05-.29.23-.35.62-.37.78-.19,1.5,1.03,8.56,1.15,9.26-1.21.46-2.93.95-5.02,1.11-2.5.18-4.57-.19-5.94-.55.07-4.47.1-7.74.09-8.48,0-.1,0-.36-.14-.65-.27-.6-.87-.84-.97-.88-.69-.28-1.55-.07-2.21.51-.09-.1-.22-.26-.37-.46-.23-.31-.89-1.23-1.38-2.63-.06-.17-.15-.43-.23-.74.86-.41,1.78-.81,2.76-1.2,2.89-1.13,4.48-1.55,5.58-1.75,0,0,2.66-.5,4.1.32.36.2.55.51.55.51.2.31.28.71.23.92-.24,1.1-4.66,1.73-5.35.41-.19-.36-.06-.8.05-1.06"/></svg>