<?xml version="1.0" encoding="utf-8"?>
<!-- Generator: Adobe Illustrator 27.5.0, SVG Export Plug-In . SVG Version: 6.00 Build 0)  -->
<svg version="1.1" id="Layer_2_00000098180611056284129650000001299810019253415586_"
	 xmlns="http://www.w3.org/2000/svg" xmlns:xlink="http://www.w3.org/1999/xlink" x="0px" y="0px" viewBox="0 0 26.7 26.5"
	 style="enable-background:new 0 0 26.7 26.5;" xml:space="preserve">
<style type="text/css">
	.st0{fill:none;stroke:#82A183;stroke-width:0.8;stroke-linejoin:round;}
</style>
<path class="st0" d="M23,15.1c-2.9,3.1-5.7,6.2-8.6,9.2c-2.6-1-5-1.9-7-2.7c-2.2-0.9-3.9-1.6-4-2.8c0-0.5,0.2-1,0.6-1.3
	c0.8-0.7,2.2-0.2,3.1,0.1c1.6,0.5,4.1,1.5,7.6,3.3c4.2-4.6,6.6-7.1,7.6-7.8c0.1-0.1,0.4-0.3,0.6-0.6c0.6-0.9,0.3-2.1,0-3.1
	c-2.5,2.6-5.1,5.1-7.6,7.7c-0.4,0.1-0.7,0.2-1.1,0.3c-2.4-0.7-4.3-1.4-5.8-2c-2.7-1-3.8-1.7-4.2-2.8c-0.1-0.2-0.3-1,0-1.9
	C4.4,9.9,5.1,9.6,7,8.1c0.9-0.7,0.6-0.5,1.5-1.2c3.1-2.4,4.6-3.5,5.6-3.8c1.3-0.2,2.7,0.3,5.6,1.3c1.6,0.6,2.8,1.1,3.6,1.5
	c-2.8,2.7-5.6,5.4-8.4,8.1c-2.8-1-5.6-2.1-8.4-3.1"/>
</svg>
