<?xml version="1.0" encoding="UTF-8"?><svg id="Layer_2" xmlns="http://www.w3.org/2000/svg" viewBox="0 0 27.33 21.51"><defs><style>.cls-1{fill:none;stroke:#82a183;stroke-linejoin:round;stroke-width:.8px;}</style></defs><path class="cls-1" d="m18.77,6.18c1.38,1.97,2.76,3.94,4.14,5.91,1.51-.85,2.61-1.53,2.96-1.81.11-.09.26-.24.28-.43.01-.19-.12-.34-.16-.39-.29-.35-4.14-5.27-4.53-6.07-.03-.06-.13-.28-.32-.32-.18-.03-.34.11-.39.16-1.31,1.14-2.75,2.13-4.1,3.23-1.88,1.53-2.15.77-3.23,2.01-.89,1.03-1.3,2.23-2.44,2.44-.2.04-.5.09-.71-.08-.65-.52-.24-2.96,1.34-4.02.84-.56,2.04-.76,3-.35.41.17.67.4.83.55,3.27,3,3.95,3.73,4.73,4.93.8,1.22,1.01,1.87.79,2.4-.23.55-.8.74-.83.75-.6.19-1.31-.09-1.77-.71.16.12.62.47.79,1.1.06.23.2.75-.08,1.14-.37.51-1.23.48-1.77.24-.4-.17-.63-.46-.75-.63.67.62.78,1.47.44,1.9-.18.22-.51.37-.83.35-.53-.04-1.01-.57-.95-.47.08.12.35.51.24.95-.18.72-1.23.85-1.38.87-.61.07-1.44-.12-1.58-.51-.2-.56,1-1.68,1.63-1.45.17.06.3.22.34.38.11.41-.27.89-.59,1.1-.99.67-3.04-.05-3.55-1.3-.05-.13-.19-.48-.08-.88.24-.9,1.56-1.48,2.01-1.13.44.34.24,1.74-.55,2.21-.62.37-1.38.03-1.89-.2-.45-.2-1.79-.8-1.89-1.97-.11-1.3,1.35-2.61,2.25-2.4.39.09.58.45.59.47.39.76-.33,2.16-1.38,2.52-1.32.46-2.58-.93-2.88-1.26-.31-.35-.71-.79-.71-1.42,0-.78.63-1.66,1.42-1.69.36-.02.75.16.95.47.38.62-.14,1.71-.91,1.97-.89.31-1.76-.64-1.96-.87-.67-.74-.75-1.62-.76-1.93.89-1.65,1.85-2.76,2.56-3.47,1.28-1.28,2.54-2.03,2.36-2.88-.04-.21-.17-.38-.91-.95-.9-.69-1.73-1.22-2.4-1.62-2.4,3.26-4.05,5.46-4.61,6.03-.1.1-.44.44-.35.75.07.24.36.35.47.39.43.17,1.09.55,2.09,1.46"/></svg>