<?xml version="1.0" encoding="UTF-8"?><svg id="Layer_2" xmlns="http://www.w3.org/2000/svg" viewBox="0 0 26.83 27.51"><defs><style>.cls-1{fill:none;stroke:#d5e4cd;stroke-linejoin:round;stroke-width:.8px;}</style></defs><path class="cls-1" d="m22.94,21.58c.06-9.45.12-16.1.22-17.2.02-.19.09-.86-.29-1.17-.28-.23-.68-.16-.8-.15-1.64.24-11.31.26-13.86.2-2.11-.04-3.39-.22-4.26.69-.74.79-.69,1.87-.66,3.23.07,3.01-.17,6.03-.11,9.04.11,5.39-.16,6.06.62,6.76.65.58,1.47.7,6.98.37,1.96-.12,3.6-.24,4.79-.33.05-.91.11-2.33.15-4.08.06-2.89-.02-3.8.66-4.55,1.13-1.24,3.28-.89,3.27-.99,0-.19-7.8.02-7.8,0,0,0,.36,0,.79-.05.87-.1,2.56-.29,3.04-1.24.23-.45-.05-.59-.05-2.18,0-.87,0-1.31.18-1.61.64-1.14,3.18-.8,3.68-.73"/></svg>