<?xml version="1.0" encoding="utf-8"?>
<!-- Generator: Adobe Illustrator 27.5.0, SVG Export Plug-In . SVG Version: 6.00 Build 0)  -->
<svg version="1.1" id="Layer_2_00000142878087252845520120000008090661779204116369_"
	 xmlns="http://www.w3.org/2000/svg" xmlns:xlink="http://www.w3.org/1999/xlink" x="0px" y="0px" viewBox="0 0 28.8 32.3"
	 style="enable-background:new 0 0 28.8 32.3;" xml:space="preserve">
<style type="text/css">
	.st0{opacity:0.95;fill:none;stroke:#D5E4CD;stroke-width:0.77;stroke-linejoin:round;enable-background:new    ;}
</style>
<path class="st0" d="M5.3,25.7c-0.3-2-0.5-4.3-0.5-6.8c0-1.9,0.1-3.6,0.2-5.2c2.2-2.5,4.1-4.4,5.5-5.7c1.8-1.7,4.8-4.2,4.8-4.2l0,0
	c5.3,3.4,8.5,8.2,8.9,8.7c0.1,0.1,0.3,0.5,0.6,0.9c0,3.8,0,7.6,0,11.3c-4.4,0.1-8.7,0.2-13.1,0.3c0-1.7,0.1-3.4,0.1-5.1
	c0-1.6,1-3,2.4-3.4c1.6-0.5,3,0.5,3.7,1.4c0.4,0.5,0.7,1.2,0.8,4.4c0,1.2,0,2.8-0.1,4.8"/>
</svg>
