<?xml version="1.0" encoding="UTF-8"?><svg id="Layer_2" xmlns="http://www.w3.org/2000/svg" viewBox="0 0 28.79 32.27"><defs><style>.cls-1{fill:none;opacity:.95;stroke:#000;stroke-linejoin:round;stroke-width:.77px;}</style></defs><path class="cls-1" d="m5.3,25.7c-.28-1.99-.48-4.27-.49-6.77,0-1.87.09-3.61.24-5.18,2.16-2.49,4.08-4.37,5.49-5.67,1.81-1.67,4.76-4.21,4.76-4.21,0,0,0,0,0,0,5.32,3.44,8.53,8.16,8.9,8.71.1.15.31.46.56.87.02,3.77.04,7.55.05,11.32-4.37.1-8.74.2-13.11.3.04-1.71.08-3.41.12-5.12.04-1.6,1.03-2.95,2.38-3.35,1.59-.48,3.04.55,3.72,1.4.39.5.72,1.19.79,4.39.03,1.21.02,2.83-.12,4.76"/></svg>