<?xml version="1.0" encoding="UTF-8"?><svg id="Layer_2" xmlns="http://www.w3.org/2000/svg" viewBox="0 0 25 25"><defs><style>.cls-1{fill:none;stroke:#d5e4cd;stroke-linejoin:round;stroke-width:.66px;}</style></defs><path class="cls-1" d="m4.14,21.4c-.26-1.72-.43-3.69-.43-5.84,0-1.63.09-3.09.17-4.46,1.89-2.15,3.52-3.78,4.72-4.89,1.55-1.46,4.12-3.61,4.12-3.61h0c4.55,2.92,7.3,7.04,7.64,7.47.09.09.26.43.52.77v9.7c-3.78.09-7.47.17-11.24.26,0-1.46.09-2.92.09-4.38,0-1.37.86-2.58,2.06-2.92,1.37-.43,2.58.43,3.18,1.2.34.43.6,1.03.69,3.78,0,1.03,0,2.4-.09,4.12"/></svg>