<?xml version="1.0" encoding="utf-8"?>
<!-- Generator: Adobe Illustrator 27.5.0, SVG Export Plug-In . SVG Version: 6.00 Build 0)  -->
<svg version="1.1" id="Layer_2_00000142878087252845520120000008090661779204116369_"
	 xmlns="http://www.w3.org/2000/svg" xmlns:xlink="http://www.w3.org/1999/xlink" x="0px" y="0px" viewBox="0 0 25 25"
	 style="enable-background:new 0 0 25 25;" xml:space="preserve">
<style type="text/css">
	.st0{fill:none;stroke:#D5E4CD;stroke-width:0.6609;stroke-linejoin:round;}
</style>
<path class="st0" d="M4.1,21.4c-0.3-1.7-0.4-3.7-0.4-5.8c0-1.6,0.1-3.1,0.2-4.5C5.8,9,7.4,7.3,8.6,6.2c1.5-1.5,4.1-3.6,4.1-3.6l0,0
	c4.5,2.9,7.3,7,7.6,7.5c0.1,0.1,0.3,0.4,0.5,0.8c0,3.3,0,6.5,0,9.7c-3.8,0.1-7.5,0.2-11.2,0.3c0-1.5,0.1-2.9,0.1-4.4
	c0-1.4,0.9-2.6,2.1-2.9c1.4-0.4,2.6,0.4,3.2,1.2c0.3,0.4,0.6,1,0.7,3.8c0,1,0,2.4-0.1,4.1"/>
</svg>
