<?xml version="1.0" encoding="utf-8"?>
<!-- Generator: Adobe Illustrator 27.5.0, SVG Export Plug-In . SVG Version: 6.00 Build 0)  -->
<svg version="1.1" id="Layer_2_00000173876408844049661620000006135409270351173262_"
	 xmlns="http://www.w3.org/2000/svg" xmlns:xlink="http://www.w3.org/1999/xlink" x="0px" y="0px" viewBox="0 0 27.1 26.8"
	 style="enable-background:new 0 0 27.1 26.8;" xml:space="preserve">
<style type="text/css">
	.st0{fill:none;stroke:#82A183;stroke-width:0.8;stroke-linejoin:round;}
</style>
<path class="st0" d="M13,23.3c3.1-1.7,5.1-3.7,6.3-5.1c1.9-2.1,5-5.7,4.5-9.9c-0.1-0.8-0.3-2.8-1.9-4c-1.3-1-2.9-1-3.3-1
	c-3.4,0.1-6.1,3.8-5.6,5.7c0,0.1,0.2,0.9,0.9,1.1c0.5,0.2,1.1,0,1.4-0.4c0.8-0.9-0.6-3.2-0.7-3.5c-0.5-0.8-2-3.3-4.7-3.4
	c-2.4-0.1-4.2,1.6-5.1,3C3,8.7,3.9,13,7.2,16.2c2.3,2.3,4,4.4,5.4,5.3"/>
</svg>
