<?xml version="1.0" encoding="UTF-8"?><svg id="Layer_2" xmlns="http://www.w3.org/2000/svg" viewBox="0 0 1920 1080"><defs><style>.cls-1,.cls-2{fill:none;stroke:#000;stroke-miterlimit:10;}.cls-2{stroke-width:.9px;}</style></defs><path class="cls-1" d="m656.63,615.63c-3.03,8.91-5.93,19.1-8.25,30.47-2.77,13.56-4.12,25.97-4.69,36.77,1.17-16.44,3.48-28.87,5.47-37.43.57-2.44.79-3.19.99-3.82,5.18-16.2,21.7-28.69,30.8-25.38.27.1,3.17,1.2,4.79,4.04,2.64,4.65-.11,10.56-.71,11.83-4.85,10.4-18.47,13.53-25.24,15.09-6.77,1.56-12.71,1.68-17.08,1.44"/><path class="cls-1" d="m606.98,656.73c-2.99,3.42-3.89,7.63-2.27,10.52.23.4,1.3,2.21,3.42,2.87,2.91.92,5.68-.97,6.83-1.76,5.02-3.43,7.84-10.82,5.68-16.62-.39-1.05-1.24-3.31-3.45-4.5-3.28-1.76-7.85-.26-10.37,2.59-2.49,2.82-3.43,7.47-1.37,10.43.26.37,1.53,2.11,5.2,2.91,8.36,1.83,16.39-3.97,18.89-5.93"/><path class="cls-1" d="m849.02,644.22c-1.01,5.29-2.12,10.69-3.33,16.18-1.06,4.79-2.42,9.62-2.22,9.68.17.05,1.2-3.7,3.29-8.65,1.45-3.44,2.88-6.16,3.86-7.94,2.17-4.21,3.51-5.01,4.36-4.87.78.13.99,1.03,2.58,2.72,1.07,1.14,2,1.81,3.15,2.65,1.32.95,3.28,2.19,5.92,3.24"/><path class="cls-1" d="m983.9,615.39c-2.41,8.95-4.58,16.21-6.12,21.21-.1.34-1.81,6.4-5.23,18.52-1.44,5.09-4.26,15.43-1.19,19.12.22.26.83.99,1.79,1.19,2.19.46,4.42-2.1,5.68-3.58,5.25-6.18,10.22-12.53,12.1-14.93"/><path class="cls-1" d="m956.42,636.6c4.76-1.46,10.15-2.79,16.13-3.73,12.64-2,23.76-1.62,32.41-.6"/><path class="cls-1" d="m915.48,550.59c5.64-4.51,9.51-9.01,12.01-12.34,0,0,7.87-10.48,8.17-20.51.02-.74.08-2.73-1-3.33-.63-.35-1.4-.09-1.67,0-4.92,1.68-8.17,13.01-8.17,13.01-4.58,15.97-6.61,26.78-8.84,38.52-.2,1.05-1.24,6.52-1.5,13.84-.16,4.38-.49,13.79,1.83,14.34,1.43.34,3.21-2.81,3.5-3.33,1.99-3.53,1.79-8.15-.33-11.67-2.24-3.72-5.9-5-7-5.34"/><path class="cls-1" d="m908.64,566.76c3.01-.47,6.77-1.37,10.84-3.17,7.69-3.39,12.72-8.29,15.51-11.51"/><path class="cls-1" d="m1354.94,511.98c-5.73,17.24-8.71,31.37-10.38,41.44-2.33,14.01-1.87,18.71-.17,19.34,1.02.37,2.32-.76,4.1-2.54,3.52-3.51,8.49-9.09,13.68-17.39"/><path class="cls-1" d="m1138.92,542.74c-1.08,5.79-2.43,10.41-3.51,13.7-1.55,4.69-2.79,7.3-1.58,8.61,1.79,1.93,7.37-.75,7.74-.93,5.4-2.65,7.9-7.89,8.94-10.66"/><ellipse class="cls-2" cx="1141.07" cy="536.19" rx="1.18" ry="1.45"/></svg>