<?xml version="1.0" encoding="utf-8"?>
<!-- Generator: Adobe Illustrator 27.5.0, SVG Export Plug-In . SVG Version: 6.00 Build 0)  -->
<svg version="1.1" id="Layer_2_00000163034166850909863190000003547906744102766516_"
	 xmlns="http://www.w3.org/2000/svg" xmlns:xlink="http://www.w3.org/1999/xlink" x="0px" y="0px" viewBox="0 0 24 23"
	 style="enable-background:new 0 0 24 23;" xml:space="preserve">
<style type="text/css">
	.st0{fill:none;stroke:#D5E4CD;stroke-width:0.8;stroke-linejoin:round;}
</style>
<path class="st0" d="M10.9,7.5c-0.1,1.8-0.1,3.7-0.1,5.7c0,2,0,4,0.1,5.9c0.1-2.3,0.4-4.3,0.6-5.9c0.3-2.2,0.6-3.4,1.6-4.3
	C13.3,8.6,14,8,15,7.8c1-0.2,2.3,0.1,3.1,0.9c0.5,0.5,0.6,1.1,0.8,1.6C19,11.1,19,11.7,19,12c0,1.4-0.2,5.1,0,7.2
	c0,0.1,0,0.5,0.3,0.8c0.5,0.6,1.6,0.7,2.2,0.3c0.5-0.4,0.5-1.1,0.5-2.5c0-4.1,0-6.1,0-6.6C22,9.2,22,8.2,22,7.7
	c0-1.8,0.1-2.8-0.1-4.4c-0.1-0.9-0.2-1.6-0.3-2C21,1.2,20,1.1,18.9,1c-1.1-0.1-4.4-0.3-11.5,0c-1.3,0-3,0.1-5.1,0.3
	C2.2,2.2,2.2,3.5,2.1,4.9c0,0.6,0,1.8,0,3.7c0,2.8,0.1,4.1,0.2,8.3c0,1.4,0.1,2.5,0.1,3.1c0.8,0.2,1.5,0.3,2,0.4
	c1.8,0.2,2.2-0.1,2.3-0.2c0.4-0.4,0.4-0.9,0.4-1.2c0.1-1.5,0.1-5.9-0.1-11.8"/>
<circle class="st0" cx="7.1" cy="3.3" r="2"/>
</svg>
