<?xml version="1.0" encoding="utf-8"?>
<!-- Generator: Adobe Illustrator 27.5.0, SVG Export Plug-In . SVG Version: 6.00 Build 0)  -->
<svg version="1.1" id="Layer_2_00000078755921987348973870000016097428606719168166_"
	 xmlns="http://www.w3.org/2000/svg" xmlns:xlink="http://www.w3.org/1999/xlink" x="0px" y="0px" viewBox="0 0 28.6 30.2"
	 style="enable-background:new 0 0 28.6 30.2;" xml:space="preserve">
<style type="text/css">
	.st0{fill:none;stroke:#D5E4CD;stroke-width:0.81;stroke-linejoin:round;}
</style>
<path class="st0" d="M4.7,25.5c-0.1-1.1-0.1-4.9,2.4-7.1c2.1-1.9,5.8-2.5,6.3-2.6c0.3,0,0.7-0.1,1.4-0.3c1.1-0.3,2.5-0.6,3.5-1.5
	c0.1-0.1,2-1.7,2-4.1c0-2.7-2.3-5.7-5.6-5.7c-3-0.1-5.5,2.4-5.7,5c-0.2,2.1,1.2,3.7,1.4,4c1.3,1.5,3,1.9,4.3,2.3
	c1.2,0.3,1.3,0.1,2.3,0.4c3.3,0.8,5.3,3.4,5.6,3.7c1.8,2.3,2,4.8,2,5.7"/>
</svg>
