<?xml version="1.0" encoding="utf-8"?>
<!-- Generator: Adobe Illustrator 27.5.0, SVG Export Plug-In . SVG Version: 6.00 Build 0)  -->
<svg version="1.1" id="Layer_2_00000078755921987348973870000016097428606719168166_"
	 xmlns="http://www.w3.org/2000/svg" xmlns:xlink="http://www.w3.org/1999/xlink" x="0px" y="0px" viewBox="0 0 25 25"
	 style="enable-background:new 0 0 25 25;" xml:space="preserve">
<style type="text/css">
	.st0{fill:none;stroke:#D5E4CD;stroke-width:0.7605;stroke-linejoin:round;}
</style>
<path class="st0" d="M3.2,22.6c-0.1-1-0.1-4.6,2.3-6.7c2-1.8,5.4-2.3,5.9-2.4c0.3,0,0.7-0.1,1.3-0.3c1-0.3,2.3-0.6,3.3-1.4
	c0.1-0.1,1.9-1.6,1.9-3.8c0-2.5-2.2-5.4-5.3-5.4C9.8,2.5,7.5,4.9,7.3,7.3c-0.2,2,1.1,3.5,1.3,3.8c1.2,1.4,2.8,1.8,4,2.2
	c1.1,0.3,1.2,0.1,2.2,0.4c3.1,0.8,5,3.2,5.3,3.5c1.7,2.2,1.9,4.5,1.9,5.4"/>
</svg>
