<?xml version="1.0" encoding="UTF-8"?><svg id="Layer_1" xmlns="http://www.w3.org/2000/svg" viewBox="0 0 64.08 35.89"><defs><style>.cls-1{fill:none;stroke:#82a183;stroke-linecap:round;stroke-linejoin:round;stroke-width:2.4px;}</style></defs><path class="cls-1" d="m62.02,32.65c.43-.41-9.5-16.64-25.1-19.92-4.11-.86-7.57-.61-9.37-.4-.34-1.46-.78-3.54-1.14-6.07-.42-2.97-.31-3.55-.67-3.86-1.24-1.08-6.77,2-23.7,17.51,2.98.67,7.39,1.93,12.25,4.46,8.78,4.56,13.91,10.58,15.4,9.39.58-.46.03-3.27-1.07-8.88-.17-.87-.32-1.59-.42-2.07,1.16-.37,3.03-.9,5.37-1.19,10.66-1.32,18.98,3.68,21.31,5.12,5.06,3.14,6.95,6.08,7.14,5.9Z"/></svg>