<?xml version="1.0" encoding="UTF-8"?><svg id="Layer_1" xmlns="http://www.w3.org/2000/svg" viewBox="0 0 31.98 17.04"><defs><style>.cls-1{fill:none;stroke:#82a183;stroke-linecap:round;stroke-linejoin:round;stroke-width:.8px;}</style></defs><path class="cls-1" d="m31.02,10.37c.14-.25-6.87-6.43-14.66-5.72-2.05.19-3.64.81-4.46,1.17-.37-.64-.88-1.55-1.41-2.68-.63-1.33-.66-1.62-.87-1.72-.74-.33-2.89,1.92-8.59,11.65,1.5-.12,3.75-.16,6.4.32,4.78.87,8.06,2.95,8.58,2.18.2-.3-.46-1.54-1.78-4.01-.21-.38-.38-.7-.5-.91.49-.34,1.29-.86,2.35-1.33,4.81-2.16,9.44-1.02,10.74-.68,2.83.74,4.14,1.85,4.2,1.74Z"/></svg>