<?xml version="1.0" encoding="utf-8"?>
<!-- Generator: Adobe Illustrator 27.5.0, SVG Export Plug-In . SVG Version: 6.00 Build 0)  -->
<svg version="1.1" id="Layer_1" xmlns="http://www.w3.org/2000/svg" xmlns:xlink="http://www.w3.org/1999/xlink" x="0px" y="0px"
	 viewBox="0 0 136.2 82.4" style="enable-background:new 0 0 136.2 82.4;" xml:space="preserve">
<style type="text/css">
	.st0{fill:none;stroke:#82A183;stroke-width:4.8005;stroke-linecap:round;stroke-linejoin:round;}
</style>
<path class="st0" d="M126.4,70.2c0.9-0.8-19-33.3-50.2-39.8c-8.2-1.7-15.1-1.2-18.7-0.8c-0.7-2.9-1.6-7.1-2.3-12.1
	c-0.8-5.9-0.6-7.1-1.3-7.7c-2.5-2.2-13.5,4-47.4,35c6,1.3,14.8,3.9,24.5,8.9c17.6,9.1,27.8,21.2,30.8,18.8c1.2-0.9,0.1-6.5-2.1-17.8
	c-0.3-1.7-0.6-3.2-0.8-4.1c2.3-0.7,6.1-1.8,10.7-2.4c21.3-2.6,38,7.4,42.6,10.2C122.3,64.6,126.1,70.5,126.4,70.2L126.4,70.2z"/>
</svg>
