<?xml version="1.0" encoding="UTF-8"?><svg id="Layer_1" xmlns="http://www.w3.org/2000/svg" viewBox="0 0 41.51 23.24"><defs><style>.cls-1{fill:none;stroke:#82a183;stroke-linecap:round;stroke-linejoin:round;stroke-width:.8px;}</style></defs><path class="cls-1" d="m40.36,21.26c.28-.27-6.22-10.9-16.44-13.05-2.69-.57-4.96-.4-6.14-.26-.22-.96-.51-2.32-.75-3.97-.28-1.94-.2-2.32-.44-2.53-.81-.71-4.43,1.31-15.52,11.47,1.95.44,4.84,1.26,8.02,2.92,5.75,2.99,9.11,6.93,10.08,6.15.38-.3.02-2.14-.7-5.81-.11-.57-.21-1.04-.27-1.35.76-.24,1.98-.59,3.52-.78,6.98-.86,12.43,2.41,13.96,3.36,3.32,2.06,4.55,3.98,4.67,3.87Z"/></svg>