<?xml version="1.0" encoding="utf-8"?>
<!-- Generator: Adobe Illustrator 27.5.0, SVG Export Plug-In . SVG Version: 6.00 Build 0)  -->
<svg version="1.1" id="Layer_2_00000017476855434747890890000016921223825481946759_"
	 xmlns="http://www.w3.org/2000/svg" xmlns:xlink="http://www.w3.org/1999/xlink" x="0px" y="0px" viewBox="0 0 32.1 32.2"
	 style="enable-background:new 0 0 32.1 32.2;" xml:space="preserve">
<style type="text/css">
	.st0{opacity:0.91;}
	.st1{fill:none;stroke:#D5E4CD;stroke-width:0.81;stroke-linejoin:round;}
</style>
<g class="st0">
	<path class="st1" d="M8.8,25.8L25,25.7c0.6-6.3,0.7-12.9,0.2-19.6c0-0.3,0-0.6-0.1-0.8c-0.3,0-7-0.3-12.6-0.2c-1.7,0-4,0.1-6.8,0.7
		h0c-0.1,11.6-0.1,17-0.1,17.1l0,0c0,0.6,8.2,0.2,16.9-0.4c0-0.3,0-0.5,0.1-0.8c0.2-3.3,0.2-6.4-0.1-9.4c-0.5-0.8-1.1-1.6-1.6-2.4
		c-1,0.7-1.7,1.3-2.2,1.8c-0.5,0.5-1.5,1.5-2.8,3.1c-0.8,0.9-1,1.3-1.5,1.3c-0.3,0-0.6-0.1-2-1.4c-1.4-1.4-1.7-1.9-2.2-1.8
		c-0.4,0.1-0.5,0.4-1.1,1.3c-0.6,0.9-1.2,1.7-1.6,2.2"/>
	<circle class="st1" cx="11.2" cy="7.7" r="2.6"/>
</g>
</svg>
