<?xml version="1.0" encoding="utf-8"?>
<!-- Generator: Adobe Illustrator 27.5.0, SVG Export Plug-In . SVG Version: 6.00 Build 0)  -->
<svg version="1.1" xmlns="http://www.w3.org/2000/svg" xmlns:xlink="http://www.w3.org/1999/xlink" x="0px" y="0px"
	 viewBox="0 0 191.6 92.7" style="enable-background:new 0 0 191.6 92.7;" xml:space="preserve">
<style type="text/css">
	.st0{fill:none;stroke:#527043;stroke-linecap:round;stroke-linejoin:round;}
	.st1{fill:#23301D;}
	.st2{font-family:'ShreeDev0714';}
	.st3{font-size:8px;}
	.st4{letter-spacing:0.8;}
	.st5{fill:none;stroke:#527043;stroke-linejoin:round;}
</style>
<g id="Layer_2_00000131359197758247425950000009821353732324076716_">
	<path class="st0" d="M23.5,6.7c-3,8.9-5.9,19.1-8.2,30.5c-2.8,13.6-4.1,26-4.7,36.8C11.7,57.5,14,45.1,16,36.5
		c0.6-2.4,0.8-3.2,1-3.8C22.2,16.5,38.7,4,47.8,7.3c0.3,0.1,3.2,1.2,4.8,4c2.6,4.7-0.1,10.6-0.7,11.8C47,33.6,33.4,36.7,26.6,38.3
		S13.9,40,9.5,39.7"/>
	<path class="st0" d="M162.3,59.3c-3,3.4-3.9,7.6-2.3,10.5c0.2,0.4,1.3,2.2,3.4,2.9c2.9,0.9,5.7-1,6.8-1.8c5-3.4,7.8-10.8,5.7-16.6
		c-0.4-1-1.2-3.3-3.4-4.5c-3.3-1.8-7.9-0.3-10.4,2.6c-2.5,2.8-3.4,7.5-1.4,10.4c0.3,0.4,1.5,2.1,5.2,2.9c8.4,1.8,16.4-4,18.9-5.9"/>
	<path class="st0" d="M107.5,59.3c-3,3.4-3.9,7.6-2.3,10.5c0.2,0.4,1.3,2.2,3.4,2.9c2.9,0.9,5.7-1,6.8-1.8c5-3.4,7.8-10.8,5.7-16.6
		c-0.4-1-1.2-3.3-3.4-4.5c-3.3-1.8-7.8-0.3-10.4,2.6c-2.5,2.8-3.4,7.5-1.4,10.4c0.3,0.4,1.5,2.1,5.2,2.9c8.5,1.9,16.6-4.2,18.6-5.7
		c0.3-0.2,0.5-0.4,0.6-0.5"/>
	<path class="st0" d="M24.1,59.3c-3,3.4-3.9,7.6-2.3,10.5c0.2,0.4,1.3,2.2,3.4,2.9c2.9,0.9,5.7-1,6.8-1.8c5-3.4,7.8-10.8,5.7-16.6
		c-0.4-1-1.2-3.3-3.5-4.5c-3.3-1.8-7.9-0.3-10.4,2.6c-2.5,2.8-3.4,7.5-1.4,10.4c0,0,0,0.1,0.1,0.1c0.2,0.3,0.6,0.7,1.2,1.1
		c0,0,2,1.5,5.2,1.8c2.9,0.3,9.7-1.5,17.8-6.1"/>
	<path class="st0" d="M49.4,47.1c-1,5.3-2.1,10.7-3.3,16.2c-1.1,4.8-2.4,9.6-2.2,9.7s1.2-3.7,3.3-8.7c1.5-3.4,2.9-6.2,3.9-7.9
		c2.2-4.2,3.5-5,4.4-4.9c0.8,0.1,1,1,2.6,2.7c0.3,0.3,0.6,0.6,0.9,0.9c0,0,1.1,1,2.3,1.8c2.3,1.6,5.1,2.9,5.6,3.1"/>
	<path class="st0" d="M78.1,20c-0.5,1.7-1,3.3-1.5,5c-0.9,3-1.8,6.1-2.7,9.1c0,0-1.9,6.8-5.2,18.5c-1.4,5.1-4.3,15.4-1.2,19.1
		c0.2,0.3,0.8,1,1.8,1.2c2.3,0.5,4.6-2.3,5.7-3.6c3.3-3.9,8.1-9.5,14-16.4"/>
	<path class="st0" d="M52.9,34.2c4.5-1.5,9.8-2.9,15.8-3.8c6.8-1.1,12.8-1.5,18-1.4"/>
	<path class="st0" d="M89,53c1.4-1.1,3.3-2.9,5.4-5.2c3.1-3.5,8.7-9.5,9.6-18c0.5-4,0.1-9.4-1.4-9.7c-2.1-0.5-5.9,9.1-7.2,12.2
		c-1.2,2.9-1.9,5.3-3.4,10.1c-1.4,4.6-2.4,8.1-2.7,9.3c-1.5,5.4-2.5,9.9-3.3,13.7c-0.4,2.1-1,5.9-2.2,13.6c-1,6.3-1.3,8.9-0.2,9.4
		c1,0.5,3-1.1,3.9-2.9c1.9-3.7-1.4-8.2-1.9-8.9c-1.1-1.5-2.3-2.4-3.1-3"/>
	<path class="st0" d="M81.4,68c5.6,0.8,14.5,1,22.2-4.2c0.7-0.5,1.3-1,2-1.5"/>
	<path class="st0" d="M149,52.3c-2,4.3-5.7,10.6-12,16.7c-3.1,2.9-4.6,4.4-5.7,3.9c-4.2-1.7,1.4-25.6,4.3-36.4
		c1.9-7,3.9-12.7,5.3-16.5"/>
	<path class="st0" d="M150.1,50.1c-1.7,3.1-3.8,7.6-5,13.4c-0.8,3.6-1.8,8.4,0,9.4c1.7,1,5.4-1.9,9.6-5.4c2.5-2,4.3-3.8,5.5-5"/>
	<ellipse class="st0" cx="151.5" cy="43.4" rx="1.2" ry="1.5"/>
	<text transform="matrix(1.25 0 0 1 91.6534 85.2418)" class="st1 st2 st3 st4">Kamilla Huhnke</text>
</g>
<g id="Layer_3">
	<path class="st5" d="M21-92.4c-3,8.9-5.9,19.1-8.2,30.5c-2.8,13.6-4.1,26-4.7,36.8c1.1-16.5,3.4-28.9,5.4-37.5
		c0.6-2.4,0.8-3.2,1-3.8c5.2-16.2,21.7-28.7,30.8-25.4c0.3,0.1,3.2,1.2,4.8,4c2.6,4.7-0.1,10.6-0.7,11.8
		c-4.9,10.5-18.5,13.6-25.3,15.2S11.4-59.1,7-59.4"/>
	<path class="st5" d="M159.8-39.8c-3,3.4-3.9,7.6-2.3,10.5c0.2,0.4,1.3,2.2,3.4,2.9c2.9,0.9,5.7-1,6.8-1.8c5-3.4,7.8-10.8,5.7-16.6
		c-0.4-1-1.2-3.3-3.4-4.5c-3.3-1.8-7.9-0.3-10.4,2.6c-2.5,2.8-3.4,7.5-1.4,10.4c0.3,0.4,1.5,2.1,5.2,2.9c8.4,1.8,16.4-4,18.9-5.9"/>
	<path class="st5" d="M105-39.8c-3,3.4-3.9,7.6-2.3,10.5c0.2,0.4,1.3,2.2,3.4,2.9c2.9,0.9,5.7-1,6.8-1.8c5-3.4,7.8-10.8,5.7-16.6
		c-0.4-1-1.2-3.3-3.4-4.5c-3.3-1.8-7.8-0.3-10.4,2.6c-2.5,2.8-3.4,7.5-1.4,10.4c0.3,0.4,1.5,2.1,5.2,2.9c8.5,1.9,16.6-4.2,18.6-5.7
		c0.3-0.2,0.5-0.4,0.6-0.5"/>
	<path class="st5" d="M21.6-39.8c-3,3.4-3.9,7.6-2.3,10.5c0.2,0.4,1.3,2.2,3.4,2.9c2.9,0.9,5.7-1,6.8-1.8c5-3.4,7.8-10.8,5.7-16.6
		c-0.4-1-1.2-3.3-3.5-4.5c-3.3-1.8-7.9-0.3-10.4,2.6c-2.5,2.8-3.4,7.5-1.4,10.4c0,0,0,0.1,0.1,0.1c0,0,1.5,2,5.1,2.8
		c2.6,0.6,10.1-1.2,19.1-6"/>
	<path class="st5" d="M46.9-52c-1,5.3-2.1,10.7-3.3,16.2c-1.1,4.8-2.4,9.6-2.2,9.7s1.2-3.7,3.3-8.7c1.5-3.4,2.9-6.2,3.9-7.9
		c2.2-4.2,3.5-5,4.4-4.9c0.8,0.1,1,1,2.6,2.7c1.1,1.1,2,1.8,3.2,2.7c1.3,1,3.3,2.2,5.9,3.2"/>
	<path class="st5" d="M75.6-79.1c-0.5,1.7-1,3.3-1.5,5c-0.9,3-1.8,6.1-2.7,9.1c0,0-1.9,6.8-5.2,18.5c-1.4,5.1-4.3,15.4-1.2,19.1
		c0.2,0.3,0.8,1,1.8,1.2c2.3,0.5,4.6-2.3,5.7-3.6c3.3-3.9,8.1-9.5,14-16.4"/>
	<path class="st5" d="M50.4-64.9c4.5-1.5,9.8-2.9,15.8-3.8c6.8-1.1,12.8-1.5,18-1.4"/>
	<path class="st5" d="M86.5-46.1c1.4-1.1,3.3-2.9,5.4-5.2c3.1-3.5,8.7-9.5,9.6-18c0.5-4,0.1-9.4-1.4-9.7c-2.1-0.5-5.9,9.1-7.2,12.2
		c-1.2,2.9-1.9,5.3-3.4,10.1c-1.4,4.6-2.4,8.1-2.7,9.3c-1.5,5.4-2.5,9.9-3.3,13.7c-0.4,2.1-1,5.9-2.2,13.6c-1,6.3-1.3,8.9-0.2,9.4
		c1,0.5,3-1.1,3.9-2.9c1.9-3.7-1.4-8.2-1.9-8.9c-1.1-1.5-2.3-2.4-3.1-3"/>
	<path class="st5" d="M78.9-31.1c5.6,0.8,14.5,1,22.2-4.2c0.7-0.5,1.3-1,2-1.5"/>
	<path class="st5" d="M146.2-46.2c-4.7,8.6-9.9,14.2-13.6,17.4c-2.9,2.6-3.6,2.7-4.1,2.5c-3.9-1.5,1.3-24.5,4.5-36.3
		c1.9-7,3.9-12.6,5.3-16.5"/>
	<path class="st5" d="M147.6-49c-1.7,3.1-3.8,7.6-5,13.4c-0.8,3.6-1.8,8.4,0,9.4c1.7,1,5.4-1.9,9.6-5.4c2.5-2,4.3-3.8,5.5-5"/>
	<ellipse class="st5" cx="149" cy="-55.7" rx="1.2" ry="1.5"/>
	<text transform="matrix(1.25 0 0 1 90.8587 -15.6855)" class="st1 st2 st3 st4">Kamilla Huhnke</text>
</g>
</svg>
