<?xml version="1.0" encoding="utf-8"?>
<!-- Generator: Adobe Illustrator 27.5.0, SVG Export Plug-In . SVG Version: 6.00 Build 0)  -->
<svg version="1.1" id="Layer_2_00000017476855434747890890000016921223825481946759_"
	 xmlns="http://www.w3.org/2000/svg" xmlns:xlink="http://www.w3.org/1999/xlink" x="0px" y="0px" viewBox="0 0 25 25"
	 style="enable-background:new 0 0 25 25;" xml:space="preserve">
<style type="text/css">
	.st0{opacity:0.91;}
	.st1{fill:none;stroke:#D5E4CD;stroke-width:0.7818;stroke-linejoin:round;}
</style>
<g class="st0">
	<path class="st1" d="M6,22.4l15.6-0.1c0.6-6.1,0.7-12.5,0.2-18.9c0-0.3,0-0.6-0.1-0.8c-0.3,0-6.8-0.3-12.2-0.2
		C7.9,2.4,5.7,2.5,3,3.1l0,0C2.9,14.3,2.9,19.5,2.9,19.6l0,0c0,0.6,7.9,0.2,16.3-0.4c0-0.3,0-0.5,0.1-0.8c0.2-3.2,0.2-6.2-0.1-9.1
		c-0.5-0.8-1.1-1.5-1.5-2.3c-1,0.7-1.6,1.3-2.1,1.7c-0.5,0.5-1.4,1.4-2.7,3c-0.8,0.9-1,1.3-1.4,1.3c-0.3,0-0.6-0.1-1.9-1.4
		c-1.4-1.4-1.6-1.8-2.1-1.7c-0.4,0.1-0.5,0.4-1.1,1.3c-0.6,0.9-1.2,1.6-1.5,2.1"/>
	<circle class="st1" cx="8.3" cy="4.9" r="2.5"/>
</g>
</svg>
