<?xml version="1.0" encoding="UTF-8"?><svg id="Layer_3" xmlns="http://www.w3.org/2000/svg" viewBox="0 0 185.64 91.48"><defs><style>.cls-1{fill:none;stroke:#527043;stroke-linejoin:round;}.cls-2{fill:#23301d;}</style></defs><path class="cls-1" d="m19.17,4.84c-3,8.9-5.9,19.1-8.2,30.5-2.8,13.6-4.1,26-4.7,36.8,1.1-16.5,3.4-28.9,5.4-37.5.6-2.4.8-3.2,1-3.8C17.87,14.64,34.37,2.14,43.47,5.44c.3.1,3.2,1.2,4.8,4,2.6,4.7-.1,10.6-.7,11.8-4.9,10.5-18.5,13.6-25.3,15.2s-12.7,1.7-17.1,1.4"/><path class="cls-1" d="m157.97,57.44c-3,3.4-3.9,7.6-2.3,10.5.2.4,1.3,2.2,3.4,2.9,2.9.9,5.7-1,6.8-1.8,5-3.4,7.8-10.8,5.7-16.6-.4-1-1.2-3.3-3.4-4.5-3.3-1.8-7.9-.3-10.4,2.6-2.5,2.8-3.4,7.5-1.4,10.4.3.4,1.5,2.1,5.2,2.9,8.4,1.8,16.4-4,18.9-5.9"/><path class="cls-1" d="m103.17,57.44c-3,3.4-3.9,7.6-2.3,10.5.2.4,1.3,2.2,3.4,2.9,2.9.9,5.7-1,6.8-1.8,5-3.4,7.8-10.8,5.7-16.6-.4-1-1.2-3.3-3.4-4.5-3.3-1.8-7.8-.3-10.4,2.6-2.5,2.8-3.4,7.5-1.4,10.4.3.4,1.5,2.1,5.2,2.9,8.5,1.9,16.6-4.2,18.6-5.7.3-.2.5-.4.6-.5"/><path class="cls-1" d="m19.77,57.44c-3,3.4-3.9,7.6-2.3,10.5.2.4,1.3,2.2,3.4,2.9,2.9.9,5.7-1,6.8-1.8,5-3.4,7.8-10.8,5.7-16.6-.4-1-1.2-3.3-3.5-4.5-3.3-1.8-7.9-.3-10.4,2.6-2.5,2.8-3.4,7.5-1.4,10.4,0,0,0,.1.1.1,0,0,1.5,2,5.1,2.8,2.6.6,10.1-1.2,19.1-6"/><path class="cls-1" d="m45.07,45.24c-1,5.3-2.1,10.7-3.3,16.2-1.1,4.8-2.4,9.6-2.2,9.7s1.2-3.7,3.3-8.7c1.5-3.4,2.9-6.2,3.9-7.9,2.2-4.2,3.5-5,4.4-4.9.8.1,1,1,2.6,2.7,1.1,1.1,2,1.8,3.2,2.7,1.3,1,3.3,2.2,5.9,3.2"/><path class="cls-1" d="m73.77,18.14c-.5,1.7-1,3.3-1.5,5-.9,3-1.8,6.1-2.7,9.1,0,0-1.9,6.8-5.2,18.5-1.4,5.1-4.3,15.4-1.2,19.1.2.3.8,1,1.8,1.2,2.3.5,4.6-2.3,5.7-3.6,3.3-3.9,8.1-9.5,14-16.4"/><path class="cls-1" d="m48.57,32.34c4.5-1.5,9.8-2.9,15.8-3.8,6.8-1.1,12.8-1.5,18-1.4"/><path class="cls-1" d="m84.67,51.14c1.4-1.1,3.3-2.9,5.4-5.2,3.1-3.5,8.7-9.5,9.6-18,.5-4,.1-9.4-1.4-9.7-2.1-.5-5.9,9.1-7.2,12.2-1.2,2.9-1.9,5.3-3.4,10.1-1.4,4.6-2.4,8.1-2.7,9.3-1.5,5.4-2.5,9.9-3.3,13.7-.4,2.1-1,5.9-2.2,13.6-1,6.3-1.3,8.9-.2,9.4,1,.5,3-1.1,3.9-2.9,1.9-3.7-1.4-8.2-1.9-8.9-1.1-1.5-2.3-2.4-3.1-3"/><path class="cls-1" d="m77.07,66.14c5.6.8,14.5,1,22.2-4.2.7-.5,1.3-1,2-1.5"/><path class="cls-1" d="m144.37,51.04c-4.7,8.6-9.9,14.2-13.6,17.4-2.9,2.6-3.6,2.7-4.1,2.5-3.9-1.5,1.3-24.5,4.5-36.3,1.9-7,3.9-12.6,5.3-16.5"/><path class="cls-1" d="m145.77,48.24c-1.7,3.1-3.8,7.6-5,13.4-.8,3.6-1.8,8.4,0,9.4,1.7,1,5.4-1.9,9.6-5.4,2.5-2,4.3-3.8,5.5-5"/><ellipse class="cls-1" cx="147.17" cy="41.54" rx="1.2" ry="1.5"/><path class="cls-2" d="m91.3,80.27c0,.22,0,.41.02.56s.06.27.13.36c.07.09.18.16.32.2.14.04.33.07.58.09v.1c-.25-.01-.51-.02-.76-.02-.25,0-.51,0-.76,0s-.49,0-.73,0c-.24,0-.48.01-.72.02v-.1c.24-.02.43-.04.56-.09.13-.04.24-.11.3-.2.07-.09.11-.21.13-.36.02-.15.02-.33.02-.56v-2.67c0-.22,0-.41-.02-.56-.02-.15-.06-.26-.13-.36-.07-.09-.17-.16-.31-.2-.14-.04-.33-.07-.57-.09v-.1c.28.01.55.02.82.02.26,0,.54,0,.81,0,.22,0,.44,0,.66,0,.22,0,.44-.01.65-.02v.1c-.23.02-.42.04-.55.09-.13.04-.23.11-.3.2s-.11.21-.12.36-.02.33-.02.56v1.35l1.52-.99c.14-.09.27-.19.4-.28.13-.1.24-.2.33-.3s.17-.2.23-.29.08-.17.08-.25c0-.08-.02-.15-.06-.2-.04-.06-.1-.1-.17-.14-.07-.03-.15-.06-.24-.08-.09-.02-.17-.02-.26-.02v-.1c.25.01.5.02.75.02.24,0,.49,0,.75,0,.27,0,.53,0,.79,0,.26,0,.53-.01.79-.02v.1c-.17.02-.33.04-.49.08-.15.04-.3.09-.46.16-.16.07-.32.16-.5.27s-.38.24-.62.4l-1.24.85,2.02,2.38c.21.24.44.44.7.62.26.18.57.28.92.3v.1c-.29-.01-.57-.02-.86-.02-.29,0-.57,0-.86,0-.26,0-.52,0-.78,0-.26,0-.51.01-.77.02v-.1c.24,0,.45-.05.62-.12s.26-.19.26-.37c0-.08-.04-.16-.11-.24s-.18-.21-.31-.36l-1.51-1.78-.96.6v1.06Z"/><path class="cls-2" d="m98.37,79.2c.05-.17.13-.3.22-.4.1-.1.21-.17.33-.22.13-.05.27-.08.43-.1.16-.01.33-.02.51-.02s.34.01.51.04.32.08.46.15.25.16.33.28c.08.11.12.25.12.42v1.48c0,.1.03.19.1.27.07.08.17.12.31.12s.25-.03.36-.09c.1-.06.2-.12.29-.18l.1.09c-.07.05-.14.12-.24.19-.09.07-.18.14-.28.21-.1.07-.2.12-.31.17-.1.05-.21.07-.3.07-.07,0-.14-.02-.21-.05-.07-.04-.15-.08-.21-.12-.07-.05-.13-.1-.2-.15-.06-.05-.11-.1-.16-.14-.21.12-.45.22-.72.32-.27.1-.53.14-.78.14-.14,0-.27-.02-.4-.06-.13-.04-.25-.09-.35-.16-.1-.07-.18-.15-.24-.25-.06-.1-.09-.21-.09-.33,0-.22.08-.39.23-.52.15-.13.35-.23.59-.3s.52-.12.83-.14c.31-.02.62-.04.94-.04v-.61c0-.2-.08-.35-.23-.46-.15-.11-.35-.16-.58-.16-.17,0-.31.07-.41.21-.1.14-.15.3-.15.47l-.82-.12Zm2.17.98c-.22-.05-.44-.07-.67-.07-.13,0-.25.01-.38.04-.13.02-.24.06-.34.12-.1.05-.18.12-.25.2-.06.08-.09.18-.09.3,0,.18.08.31.23.39s.33.12.53.12c.21,0,.41-.03.58-.1s.3-.13.38-.18v-.81Z"/><path class="cls-2" d="m105.44,80.99c0,.18.06.29.18.35.12.06.29.1.51.13v.1c-.19-.01-.4-.02-.61-.02-.22,0-.44,0-.67,0-.15,0-.3,0-.45,0-.15,0-.3.01-.47.02v-.1c.24-.03.42-.08.54-.13.12-.06.18-.17.18-.35v-1.63c0-.13-.01-.23-.04-.3-.02-.07-.06-.13-.11-.17-.05-.04-.12-.07-.21-.08-.09-.02-.19-.03-.32-.03v-.1l1.46-.16v.4c.21-.12.42-.23.63-.32.21-.09.46-.13.74-.13.23,0,.44.04.62.11.18.08.34.18.48.33.09-.05.18-.1.29-.15s.22-.1.33-.14c.11-.05.23-.08.35-.11.12-.03.24-.04.35-.04.42,0,.75.09.99.28.24.18.36.46.36.83v1.42c0,.18.06.29.19.35.12.06.3.1.54.13v.1c-.21-.01-.43-.02-.65-.02-.22,0-.44,0-.67,0-.15,0-.3,0-.44,0-.14,0-.27.01-.39.02v-.1c.19-.03.35-.08.46-.13.12-.06.18-.17.18-.35v-1.34c0-.26-.08-.46-.25-.59-.16-.13-.35-.2-.57-.2-.41,0-.73.08-.98.26v1.87c0,.18.06.29.18.35.12.06.29.1.51.13v.1c-.19-.01-.4-.02-.62-.02-.22,0-.44,0-.67,0-.15,0-.3,0-.44,0-.14,0-.27.01-.39.02v-.1c.19-.03.35-.08.46-.13.12-.06.17-.17.17-.35v-1.34c0-.26-.05-.47-.15-.61-.1-.15-.32-.22-.66-.22-.1,0-.19,0-.26.02-.08.01-.15.04-.22.07-.07.03-.15.07-.23.12-.08.05-.17.11-.26.19v1.78Z"/><path class="cls-2" d="m113.85,79.55c0-.13,0-.24-.01-.34s-.04-.18-.09-.25-.12-.12-.22-.16c-.1-.04-.24-.07-.41-.09v-.11l1.52-.08v2.35c0,.13.01.24.04.32.03.08.07.14.13.18s.15.07.25.08c.1.02.22.03.37.03v.1c-.23-.01-.47-.02-.71-.02-.24,0-.47,0-.71,0-.15,0-.3,0-.45,0-.15,0-.3.01-.45.02v-.1c.13,0,.25-.02.34-.03.09-.02.17-.04.23-.08.06-.04.1-.1.13-.18.03-.08.04-.18.04-.32v-1.32Zm.29-3.38c.15,0,.27.04.38.13s.16.19.16.31-.05.22-.16.31-.23.13-.38.13-.27-.04-.38-.13-.15-.19-.15-.31.05-.22.15-.31.23-.13.38-.13Z"/><path class="cls-2" d="m117.02,81.47c.17,0,.3-.03.4-.06.1-.03.18-.07.23-.13.05-.06.09-.14.1-.24.01-.1.02-.23.02-.38v-4.02c0-.21-.04-.35-.12-.44s-.27-.12-.57-.12v-.1l1.47-.14v4.82c0,.15,0,.28.02.38s.05.18.1.24.14.1.24.13.25.05.42.06v.1c-.19-.01-.39-.02-.59-.02-.2,0-.41,0-.6,0s-.38,0-.57,0c-.18,0-.37.01-.55.02v-.1Z"/><path class="cls-2" d="m121.01,81.47c.17,0,.3-.03.4-.06.1-.03.18-.07.23-.13.05-.06.09-.14.1-.24.01-.1.02-.23.02-.38v-4.02c0-.21-.04-.35-.12-.44s-.27-.12-.57-.12v-.1l1.47-.14v4.82c0,.15,0,.28.02.38s.05.18.1.24.14.1.24.13.25.05.42.06v.1c-.19-.01-.39-.02-.59-.02-.2,0-.41,0-.6,0s-.38,0-.57,0c-.18,0-.37.01-.55.02v-.1Z"/><path class="cls-2" d="m125.55,79.2c.05-.17.13-.3.22-.4.1-.1.21-.17.33-.22.13-.05.27-.08.43-.1.16-.01.33-.02.51-.02s.34.01.51.04.32.08.46.15.25.16.33.28c.08.11.12.25.12.42v1.48c0,.1.03.19.1.27.07.08.17.12.31.12s.25-.03.36-.09c.1-.06.2-.12.29-.18l.1.09c-.07.05-.14.12-.24.19-.09.07-.18.14-.28.21-.1.07-.2.12-.31.17-.1.05-.21.07-.3.07-.07,0-.14-.02-.21-.05-.07-.04-.15-.08-.21-.12-.07-.05-.13-.1-.2-.15-.06-.05-.11-.1-.16-.14-.21.12-.45.22-.72.32-.27.1-.53.14-.78.14-.14,0-.27-.02-.4-.06-.13-.04-.25-.09-.35-.16-.1-.07-.18-.15-.24-.25-.06-.1-.09-.21-.09-.33,0-.22.08-.39.23-.52.15-.13.35-.23.59-.3s.52-.12.83-.14c.31-.02.62-.04.94-.04v-.61c0-.2-.08-.35-.23-.46-.15-.11-.35-.16-.58-.16-.17,0-.31.07-.41.21-.1.14-.15.3-.15.47l-.82-.12Zm2.17.98c-.22-.05-.44-.07-.67-.07-.13,0-.25.01-.38.04-.13.02-.24.06-.34.12-.1.05-.18.12-.25.2-.06.08-.09.18-.09.3,0,.18.08.31.23.39s.33.12.53.12c.21,0,.41-.03.58-.1s.3-.13.38-.18v-.81Z"/><path class="cls-2" d="m140.96,77.6c0-.22,0-.41-.02-.56s-.06-.26-.13-.36c-.07-.09-.17-.16-.32-.2-.14-.04-.33-.07-.57-.09v-.1c.28.01.55.02.81.02.26,0,.54,0,.82,0,.22,0,.44,0,.66,0,.22,0,.44-.01.65-.02v.1c-.23.02-.42.04-.55.09-.13.04-.23.11-.3.2-.07.09-.11.21-.12.36s-.03.33-.03.56v2.67c0,.22,0,.41.03.56s.06.27.13.36c.07.09.17.16.31.2.14.04.33.07.58.09v.1c-.25-.01-.51-.02-.76-.02-.25,0-.51,0-.76,0s-.49,0-.73,0c-.24,0-.48.01-.72.02v-.1c.24-.02.43-.04.56-.09.13-.04.24-.11.31-.2.07-.09.11-.21.13-.36s.02-.33.02-.56v-1.44h-3.71v1.44c0,.22,0,.41.03.56s.06.27.13.36c.07.09.17.16.32.2.14.04.33.07.58.09v.1c-.25-.01-.51-.02-.76-.02-.25,0-.51,0-.76,0s-.49,0-.73,0c-.24,0-.48.01-.72.02v-.1c.24-.02.43-.04.56-.09.13-.04.23-.11.3-.2.07-.09.11-.21.13-.36s.03-.33.03-.56v-2.67c0-.22,0-.41-.03-.56s-.06-.26-.13-.36-.17-.16-.31-.2c-.14-.04-.33-.07-.57-.09v-.1c.28.01.55.02.81.02.26,0,.54,0,.82,0,.22,0,.44,0,.66,0,.22,0,.44-.01.65-.02v.1c-.23.02-.42.04-.55.09-.13.04-.23.11-.3.2s-.11.21-.12.36-.03.33-.03.56v.98h3.71v-.98Z"/><path class="cls-2" d="m146.23,80.56c0,.22.07.4.22.52.14.12.35.18.63.18.21,0,.42-.04.63-.12.21-.08.37-.17.46-.26v-1.69c0-.07,0-.13-.02-.19-.01-.06-.05-.11-.1-.16-.05-.04-.13-.08-.24-.12-.11-.04-.25-.06-.43-.08v-.09l1.57-.09v2.46c0,.2.07.34.2.4s.31.11.54.12v.08c-.25.01-.51.02-.77.02-.26,0-.51.01-.75.02v-.42c-.23.14-.48.26-.73.36-.26.1-.54.15-.83.15-.32,0-.59-.07-.82-.22-.23-.14-.34-.37-.34-.66v-1.66c0-.16-.06-.27-.17-.33-.11-.06-.31-.1-.58-.13v-.1l1.53-.1v2.1Z"/><path class="cls-2" d="m156.46,81.57c-.19-.01-.4-.02-.62-.02-.22,0-.44,0-.67,0-.15,0-.3,0-.45,0-.14,0-.28.01-.42.02v-.1c.21-.03.38-.08.5-.13.12-.06.17-.17.17-.35v-1.29c0-.27-.07-.48-.21-.63s-.38-.22-.7-.22c-.11,0-.23.01-.35.04-.12.03-.23.06-.33.11-.1.05-.18.09-.25.15-.07.05-.1.1-.1.15v1.7c0,.18.06.29.19.35.13.06.32.1.57.13v.1c-.23-.01-.45-.02-.68-.02-.22,0-.45,0-.67,0-.15,0-.3,0-.44,0-.14,0-.29.01-.45.02v-.1c.23-.03.4-.08.52-.13.12-.06.18-.17.18-.35v-4.08c0-.19-.01-.34-.04-.45s-.06-.19-.12-.25c-.06-.06-.13-.09-.23-.11-.1-.02-.22-.03-.36-.03v-.1l1.53-.14v3.1c.18-.11.39-.22.62-.32s.46-.15.67-.15c.19,0,.37.02.54.06.17.04.32.1.46.18s.24.2.32.34c.08.14.12.32.12.54v1.41c0,.18.06.29.18.35.12.06.29.1.52.13v.1Z"/><path class="cls-2" d="m158.35,78.69l1.46-.18v.42c.18-.11.39-.22.62-.32s.46-.15.67-.15c.19,0,.37.02.54.06.17.04.32.1.46.18s.24.2.32.34c.08.14.12.32.12.54v1.41c0,.18.06.29.18.35.12.06.29.1.52.13v.1c-.19-.01-.4-.02-.62-.02-.22,0-.44,0-.67,0-.15,0-.3,0-.45,0-.14,0-.28.01-.42.02v-.1c.21-.03.38-.08.5-.13.12-.06.17-.17.17-.35v-1.29c0-.27-.07-.48-.21-.63s-.38-.22-.7-.22c-.11,0-.23.01-.35.04-.12.03-.23.06-.33.11-.1.05-.18.09-.25.15-.07.05-.1.1-.1.15v1.7c0,.18.06.29.19.35.13.06.32.1.57.13v.1c-.23-.01-.45-.02-.68-.02-.22,0-.45,0-.67,0-.15,0-.3,0-.44,0-.14,0-.29.01-.45.02v-.1c.23-.03.4-.08.52-.13.12-.06.18-.17.18-.35v-1.86c0-.16-.07-.26-.21-.3-.14-.04-.29-.06-.48-.06v-.1Z"/><path class="cls-2" d="m165.03,81.47c.18-.02.32-.04.42-.08.1-.04.17-.09.21-.16.04-.07.07-.16.08-.27s.01-.24.01-.4v-3.71c0-.15-.01-.28-.04-.38-.03-.1-.07-.18-.13-.23-.06-.06-.14-.09-.23-.12-.1-.02-.21-.03-.34-.04v-.1l1.53-.14v4.3c.07-.05.19-.13.36-.23.16-.1.33-.21.5-.32.17-.11.31-.23.44-.34s.19-.22.19-.31c0-.09-.03-.15-.08-.18-.05-.03-.12-.06-.22-.07v-.1h1.95v.1c-.2.03-.39.07-.56.14-.17.07-.34.14-.5.23-.16.09-.32.18-.46.28-.15.1-.3.2-.45.3.15.14.32.32.49.51.17.2.36.39.56.58s.42.35.65.49c.23.14.47.23.73.25v.1c-.2-.01-.4-.02-.6-.02-.2,0-.41,0-.62,0s-.42,0-.63,0c-.21,0-.42.01-.63.02v-.1c.11,0,.23-.01.35-.06s.18-.12.18-.23c0-.07-.04-.16-.12-.27-.08-.11-.18-.22-.29-.34-.11-.11-.22-.23-.33-.34-.11-.11-.2-.2-.25-.26l-.64.38v.59c0,.17.05.29.14.36.09.07.28.12.56.15v.1c-.22-.01-.44-.02-.66-.02-.22,0-.43,0-.65,0-.15,0-.3,0-.45,0-.14,0-.29.01-.45.02v-.1Z"/><path class="cls-2" d="m172.79,79.86c0,.28.04.51.13.69.09.18.2.33.34.43.14.11.28.18.44.22.16.04.3.06.43.06.28,0,.53-.04.76-.11.23-.07.44-.19.63-.34l.17.13c-.27.23-.55.41-.84.54-.29.12-.63.18-1.03.18-.29,0-.54-.04-.77-.14s-.42-.21-.58-.36c-.16-.15-.28-.32-.37-.51-.08-.19-.12-.39-.12-.59s.04-.4.12-.59c.08-.19.21-.36.37-.51.16-.15.35-.27.58-.36.23-.09.48-.14.77-.14.53,0,.95.12,1.27.34.32.23.52.58.59,1.05h-2.9Zm1.95-.24c-.02-.14-.05-.27-.08-.39-.03-.12-.09-.21-.16-.29s-.17-.14-.29-.18c-.12-.04-.27-.06-.46-.06-.14,0-.27.03-.38.08-.12.06-.22.13-.3.22-.08.09-.15.19-.19.3s-.07.21-.07.32h1.93Z"/></svg>