<?xml version="1.0" encoding="UTF-8"?><svg id="Layer_2" xmlns="http://www.w3.org/2000/svg" viewBox="0 0 32.08 32.16"><defs><style>.cls-1{opacity:.91;}.cls-2{fill:none;stroke:#000;stroke-linejoin:round;stroke-width:.81px;}</style></defs><g class="cls-1"><path class="cls-2" d="m8.83,25.78l16.17-.07c.58-6.33.69-12.85.2-19.56-.02-.28-.04-.57-.07-.85-.28-.01-7.03-.29-12.65-.25-1.69.01-3.97.06-6.82.7,0,0-.02,0-.02,0-.08,11.59-.12,17.03-.13,17.07,0,0,0,0,0,0,.04.57,8.25.18,16.88-.39.02-.26.05-.52.07-.78.25-3.29.2-6.45-.07-9.45-.54-.8-1.09-1.61-1.63-2.41-1.01.67-1.73,1.32-2.2,1.78-.48.48-1.46,1.51-2.76,3.05-.79.94-1.04,1.28-1.5,1.3-.3.02-.64-.11-1.96-1.43-1.36-1.37-1.67-1.89-2.15-1.83-.38.05-.54.44-1.11,1.3-.62.94-1.2,1.66-1.63,2.15"/><circle class="cls-2" cx="11.17" cy="7.73" r="2.62"/></g></svg>