<?xml version="1.0" encoding="UTF-8"?><svg id="Layer_2" xmlns="http://www.w3.org/2000/svg" viewBox="0 0 191.6 92.7"><defs><style>.cls-1{fill:none;stroke:#527043;stroke-linejoin:round;}.cls-2{fill:#23301d;}</style></defs><path class="cls-1" d="m23.5,6.7c-3,8.9-5.9,19.1-8.2,30.5-2.8,13.6-4.1,26-4.7,36.8,1.1-16.5,3.4-28.9,5.4-37.5.6-2.4.8-3.2,1-3.8,5.2-16.2,21.7-28.7,30.8-25.4.3.1,3.2,1.2,4.8,4,2.6,4.7-.1,10.6-.7,11.8-4.9,10.5-18.5,13.6-25.3,15.2s-12.7,1.7-17.1,1.4"/><path class="cls-1" d="m162.3,59.3c-3,3.4-3.9,7.6-2.3,10.5.2.4,1.3,2.2,3.4,2.9,2.9.9,5.7-1,6.8-1.8,5-3.4,7.8-10.8,5.7-16.6-.4-1-1.2-3.3-3.4-4.5-3.3-1.8-7.9-.3-10.4,2.6-2.5,2.8-3.4,7.5-1.4,10.4.3.4,1.5,2.1,5.2,2.9,8.4,1.8,16.4-4,18.9-5.9"/><path class="cls-1" d="m107.5,59.3c-3,3.4-3.9,7.6-2.3,10.5.2.4,1.3,2.2,3.4,2.9,2.9.9,5.7-1,6.8-1.8,5-3.4,7.8-10.8,5.7-16.6-.4-1-1.2-3.3-3.4-4.5-3.3-1.8-7.8-.3-10.4,2.6-2.5,2.8-3.4,7.5-1.4,10.4.3.4,1.5,2.1,5.2,2.9,8.5,1.9,16.6-4.2,18.6-5.7.3-.2.5-.4.6-.5"/><path class="cls-1" d="m24.1,59.3c-3,3.4-3.9,7.6-2.3,10.5.2.4,1.3,2.2,3.4,2.9,2.9.9,5.7-1,6.8-1.8,5-3.4,7.8-10.8,5.7-16.6-.4-1-1.2-3.3-3.5-4.5-3.3-1.8-7.9-.3-10.4,2.6-2.5,2.8-3.4,7.5-1.4,10.4,0,0,0,.1.1.1,0,0,1.5,2,5.1,2.8,2.6.6,10.1-1.2,19.1-6"/><path class="cls-1" d="m49.4,47.1c-1,5.3-2.1,10.7-3.3,16.2-1.1,4.8-2.4,9.6-2.2,9.7s1.2-3.7,3.3-8.7c1.5-3.4,2.9-6.2,3.9-7.9,2.2-4.2,3.5-5,4.4-4.9.8.1,1,1,2.6,2.7,1.1,1.1,2,1.8,3.2,2.7,1.3,1,3.3,2.2,5.9,3.2"/><path class="cls-1" d="m78.1,20c-.5,1.7-1,3.3-1.5,5-.9,3-1.8,6.1-2.7,9.1,0,0-1.9,6.8-5.2,18.5-1.4,5.1-4.3,15.4-1.2,19.1.2.3.8,1,1.8,1.2,2.3.5,4.6-2.3,5.7-3.6,3.3-3.9,8.1-9.5,14-16.4"/><path class="cls-1" d="m52.9,34.2c4.5-1.5,9.8-2.9,15.8-3.8,6.8-1.1,12.8-1.5,18-1.4"/><path class="cls-1" d="m89,53c1.4-1.1,3.3-2.9,5.4-5.2,3.1-3.5,8.7-9.5,9.6-18,.5-4,.1-9.4-1.4-9.7-2.1-.5-5.9,9.1-7.2,12.2-1.2,2.9-1.9,5.3-3.4,10.1-1.4,4.6-2.4,8.1-2.7,9.3-1.5,5.4-2.5,9.9-3.3,13.7-.4,2.1-1,5.9-2.2,13.6-1,6.3-1.3,8.9-.2,9.4,1,.5,3-1.1,3.9-2.9,1.9-3.7-1.4-8.2-1.9-8.9-1.1-1.5-2.3-2.4-3.1-3"/><path class="cls-1" d="m81.4,68c5.6.8,14.5,1,22.2-4.2.7-.5,1.3-1,2-1.5"/><path class="cls-1" d="m148.7,52.9c-4.7,8.6-9.9,14.2-13.6,17.4-2.9,2.6-3.6,2.7-4.1,2.5-3.9-1.5,1.3-24.5,4.5-36.3,1.9-7,3.9-12.6,5.3-16.5"/><path class="cls-1" d="m150.1,50.1c-1.7,3.1-3.8,7.6-5,13.4-.8,3.6-1.8,8.4,0,9.4,1.7,1,5.4-1.9,9.6-5.4,2.5-2,4.3-3.8,5.5-5"/><ellipse class="cls-1" cx="151.5" cy="43.4" rx="1.2" ry="1.5"/><path class="cls-2" d="m92.45,85.24v-5.89h.5v3.25l4.3-3.25h.63l-3.17,2.46,3.3,3.44h-.61l-3.07-3.17-1.39,1.01v2.16h-.5Z"/><path class="cls-2" d="m100.41,85.04c-.37-.24-.56-.52-.56-.85s.18-.6.55-.83c.36-.24.8-.38,1.34-.42.52-.04.95-.11,1.28-.2.34-.09.51-.2.51-.33v-.38c0-.22-.15-.4-.45-.56-.29-.15-.65-.23-1.07-.23-.4,0-.74.07-1.03.22-.28.15-.42.33-.42.54v.22h-.47v-.26c0-.29.19-.53.56-.73.38-.2.84-.3,1.37-.3s1.01.1,1.4.29c.39.19.58.42.58.7v2.56c0,.17.04.31.14.43.09.12.2.18.34.18.04,0,.08,0,.11,0s.06-.02.08-.03v.19c-.12.05-.28.07-.47.07s-.36-.07-.5-.2c-.13-.13-.2-.29-.2-.48-.1.23-.31.41-.63.55-.32.14-.7.21-1.12.21-.52,0-.96-.12-1.33-.35Zm2.5-.3c.34-.22.55-.51.62-.86v-.97c-.12.08-.33.15-.63.2-.29.05-.67.1-1.16.13-.39.03-.72.13-.98.32-.26.18-.4.39-.4.64s.14.46.41.64c.27.18.59.27.97.27.44,0,.83-.12,1.17-.35Z"/><path class="cls-2" d="m107.01,85.24v-4.23h.5v.72c.15-.25.36-.45.63-.6.27-.15.57-.23.88-.23.37,0,.7.08.98.24.29.17.48.38.56.63.16-.26.39-.47.71-.63.32-.16.67-.24,1.06-.24.47,0,.88.13,1.22.39.33.26.5.57.5.93v3.02h-.5v-3.02c0-.28-.12-.52-.36-.71-.23-.2-.52-.3-.86-.3-.39,0-.74.11-1.04.33s-.5.5-.57.83v2.87h-.5v-3.02c0-.28-.11-.52-.33-.71-.22-.2-.49-.3-.81-.3-.37,0-.71.12-1.01.35-.29.24-.48.54-.56.89v2.79h-.5Z"/><path class="cls-2" d="m116.96,79.35h.5v.61h-.5v-.61Zm0,5.89v-4.23h.5v4.23h-.5Z"/><path class="cls-2" d="m120.45,85.24v-5.89h.5v5.89h-.5Z"/><path class="cls-2" d="m123.93,85.24v-5.89h.5v5.89h-.5Z"/><path class="cls-2" d="m127.54,85.04c-.37-.24-.56-.52-.56-.85s.18-.6.55-.83c.36-.24.8-.38,1.34-.42.52-.04.95-.11,1.28-.2.34-.09.51-.2.51-.33v-.38c0-.22-.15-.4-.45-.56-.29-.15-.65-.23-1.07-.23-.4,0-.74.07-1.03.22-.28.15-.42.33-.42.54v.22h-.47v-.26c0-.29.19-.53.56-.73.38-.2.84-.3,1.37-.3s1.01.1,1.4.29c.39.19.58.42.58.7v2.56c0,.17.04.31.14.43.09.12.2.18.34.18.04,0,.08,0,.11,0s.06-.02.08-.03v.19c-.12.05-.28.07-.47.07s-.36-.07-.5-.2c-.13-.13-.2-.29-.2-.48-.1.23-.31.41-.63.55-.32.14-.7.21-1.12.21-.52,0-.96-.12-1.33-.35Zm2.5-.3c.34-.22.55-.51.62-.86v-.97c-.12.08-.33.15-.63.2-.29.05-.67.1-1.16.13-.39.03-.72.13-.98.32-.26.18-.4.39-.4.64s.14.46.41.64c.27.18.59.27.97.27.44,0,.83-.12,1.17-.35Z"/><path class="cls-2" d="m139.52,85.24v-5.89h.5v2.57h4.45v-2.57h.5v5.89h-.5v-2.94h-4.45v2.94h-.5Z"/><path class="cls-2" d="m148.41,84.96c-.36-.26-.53-.57-.53-.93v-3.02h.5v3.02c0,.27.13.51.38.71.26.19.57.29.93.29.43,0,.82-.13,1.16-.4s.55-.6.65-1v-2.61h.5v4.23h-.5v-.75c-.15.26-.39.47-.72.63-.32.15-.68.23-1.08.23-.5,0-.92-.13-1.28-.39Z"/><path class="cls-2" d="m154.98,85.24v-5.89h.5v2.46c.17-.29.41-.51.75-.69.32-.17.67-.26,1.06-.26.5,0,.92.15,1.28.45.36.29.53.65.53,1.06v2.87h-.5v-2.79c0-.34-.13-.64-.39-.87-.26-.25-.57-.37-.93-.37-.41,0-.77.12-1.11.36-.34.23-.57.54-.7.91v2.76h-.5Z"/><path class="cls-2" d="m162,85.24v-4.23h.5v.72c.15-.25.38-.45.68-.6.31-.15.65-.23,1.02-.23.52,0,.96.14,1.33.41.37.28.56.61.56.99v2.94h-.5v-2.94c0-.29-.14-.54-.41-.75-.27-.21-.6-.31-.98-.31-.42,0-.78.11-1.11.34-.32.23-.52.52-.6.86v2.79h-.5Z"/><path class="cls-2" d="m168.99,85.24v-5.89h.5v3.86l2.83-2.2h.62l-2.04,1.55,2.27,2.68h-.52l-2.08-2.42-1.09.83v1.58h-.5Z"/><path class="cls-2" d="m175.8,84.78c-.43-.42-.65-.97-.65-1.65s.22-1.23.65-1.65c.43-.41,1-.62,1.71-.62s1.28.19,1.71.57c.43.38.65.88.65,1.51v.19h-4.22c0,.58.17,1.04.51,1.38.34.34.79.52,1.35.52.42,0,.8-.09,1.14-.27.35-.18.59-.43.72-.73h.5c-.08.39-.35.72-.79.97-.45.26-.97.39-1.57.39-.71,0-1.28-.21-1.71-.62Zm3.58-2.03v-.15c-.04-.39-.24-.72-.6-.99-.37-.26-.79-.4-1.27-.4s-.9.14-1.25.41c-.37.28-.57.62-.61,1.02v.11h3.73Z"/></svg>