<?xml version="1.0" encoding="utf-8"?>
<!-- Generator: Adobe Illustrator 27.5.0, SVG Export Plug-In . SVG Version: 6.00 Build 0)  -->
<svg version="1.1" id="ansigt" xmlns="http://www.w3.org/2000/svg" xmlns:xlink="http://www.w3.org/1999/xlink" x="0px" y="0px"
	 viewBox="0 0 58.7 105.7" style="enable-background:new 0 0 58.7 105.7;" xml:space="preserve">
<style type="text/css">
	.st0{fill:#F6D557;}
	.st1{fill:#9A8129;}
	.st2{fill:none;}
	.st3{fill:#F7FF7F;}
	.st4{fill:#8E7600;}
	.st5{fill:#EC80C4;}
	.st6{fill:#F369C3;}
	.st7{opacity:0.8;fill:#ECF3F7;enable-background:new    ;}
	.st8{opacity:0.8;fill:#D3EBF6;enable-background:new    ;}
	.st9{fill:#F8EC80;}
	.st10{fill:#FFE76E;}
	.st11{fill:#F8E266;}
	.st12{fill:none;stroke:#000000;stroke-width:0.4363;stroke-miterlimit:10;}
	.st13{fill:#1F0000;stroke:#000000;stroke-width:7.271907e-02;stroke-miterlimit:10;}
	.st14{fill:#FF5568;stroke:#000000;stroke-width:7.271907e-02;stroke-miterlimit:10;}
</style>
<path class="st0" d="M21.8,36.6l9.6-17.2c0-0.5-9.2-2.4-9.7-2.4c-2.9-0.2-6.2,1.2-8.8,2.1C10.1,20,7.7,22,6.1,24
	c0,0-0.4,0.2-0.4,0.6c0,0.2,0.1,0.5,0.3,0.7l14.7,11.8C21.1,37.5,21.8,37.2,21.8,36.6L21.8,36.6z"/>
<path class="st1" d="M4.5,24.7C4.1,24.4,4,23.8,4,22.9c0-0.8,0-1.6,0.2-1.6c0.2,0,0.2,1.3,0.6,1.3c0.3,0,0.4-0.5,1-1.4
	c0.6-0.7,0.9-1.2,1.5-1.5c0.5-0.2,0.9-0.3,1.1-0.7c0.1-0.2,0.1-0.2,0.2-0.7c0.1-0.5,0.4-1.1,0.5-1c0.1,0-0.1,0.8,0.2,1
	c0.3,0.2,0.7-0.4,1.8-0.7c0.5-0.1,0.8-0.1,1.3-0.4c0.2-0.1,0.4-0.3,0.6-0.5c0.3-0.5,0.2-0.8,0.6-1.3c0.1-0.1,0.4-0.4,0.5-0.3
	c0.2,0.1-0.2,0.9,0.2,1.2c0.3,0.3,0.9,0,1.7-0.3c0.4-0.1,1.2-0.2,2.6-0.3c1.2-0.1,1.4-0.1,1.7-0.3c0.2-0.1,0.3-0.2,1.2-0.9
	c0.5-0.4,0.8-0.5,0.8-0.5c0.1,0.1-0.6,0.8-0.3,1.3c0.2,0.4,0.8,0.8,5,0.6c0.9,0,1.1,1.2,1.9,0.7c0.5-0.3,0.8-0.3,1.6,0
	c2.4,0.6-0.6,0.6-0.4,0.8c0.3,0.6,2.3,1.8,1.4,1.8c-1.9,0-2.7-1.2-5.5-1.2c-1.9,0-2.2-1-3.5-0.9c-0.4,0-1.6-0.1-2.9,0.4
	c-1.6,0.6-0.7-0.2-1.7,0.3c-0.7,0.3-1,0.4-2.2,0.4c-0.5,0-1.8,0.2-2.3,0.8c-0.4,0.5-0.9,0.2-1.8,0.7c-1.6,1-1.3,0.8-1.6,1
	c-1,0.6-1.4,0.8-1.7,1.2c-1.1,1.6-1.9,1.4-2.1,2c0,0.1-0.1,0.4-0.4,0.6C5.3,24.9,4.8,24.9,4.5,24.7L4.5,24.7z"/>
<line class="st2" x1="20.6" y1="34.7" x2="11" y2="22.8"/>
<path class="st3" d="M20.6,34.7c-1.2-1.5-3.7-4.4-4.9-5.8c-1.7-1.9-3.3-3.9-4.7-6l0,0c1.8,1.8,3.4,3.8,4.9,5.8
	C17.1,30.1,19.4,33.2,20.6,34.7L20.6,34.7L20.6,34.7L20.6,34.7z"/>
<line class="st2" x1="20.8" y1="32" x2="17.8" y2="20.6"/>
<path class="st3" d="M20.7,32.1c-0.4-1.4-1.2-4.3-1.6-5.7c-0.6-1.9-1.1-3.8-1.3-5.8l0,0c0.7,1.8,1.2,3.8,1.6,5.7
	C19.8,27.7,20.4,30.6,20.7,32.1L20.7,32.1L20.7,32.1L20.7,32.1z"/>
<line class="st2" x1="21.4" y1="33" x2="25.4" y2="20.6"/>
<path class="st3" d="M21.4,33c0.4-1.6,1.4-4.7,1.8-6.3c0.6-2.1,1.2-4.2,2.1-6.2l0,0c-0.4,2.1-1.1,4.2-1.8,6.3
	C23.1,28.4,22,31.5,21.4,33L21.4,33L21.4,33z"/>
<path class="st4" d="M4.5,22.6c0,0-0.4,0.7,0.4,1.6S4.5,22.6,4.5,22.6z"/>
<path class="st4" d="M9,18.4c0,0-0.7,0.8-0.6,2S9,18.4,9,18.4z"/>
<path class="st4" d="M13.8,16c0,0,0.7,0.7-0.7,1.7S13.8,16,13.8,16z"/>
<path class="st4" d="M21.7,15.1c0,0-0.8-0.1-1.4,0.9C19.8,17,21.7,15.1,21.7,15.1z"/>
<path class="st4" d="M28.5,17.2c0,0,0.5,0.7,1.7,0.1C31.3,16.7,28.5,17.2,28.5,17.2z"/>
<path class="st5" d="M28.6,56.1L49,4.2c0.2-0.4,0.7-0.7,1.1-0.5l1.3,0.5c-0.1-0.1-0.1-0.1-0.2-0.1l-2.6-1c-0.4-0.2-1,0-1.1,0.5
	L27.1,55.5c-0.2,0.4,0,0.9,0.5,1.1l1.3,0.5C28.5,56.9,28.4,56.5,28.6,56.1L28.6,56.1z"/>
<path class="st6" d="M31,57L51.4,5.1c0.1-0.4,0-0.8-0.3-1l-1.3-0.5c-0.4-0.2-0.9,0-1.1,0.5L28.3,56c-0.1,0.4,0,0.8,0.3,1l1.3,0.5
	C30.3,57.7,30.8,57.4,31,57L31,57z"/>
<path class="st7" d="M47.3,24.8c-3.5,10.2,2.8,25.6,6.8,33.6c6.6,16.6-4.4,26.7-17,28.8c0,0-0.5-0.1-0.6,0.2
	c-0.1,0.1-0.1,0.2-0.1,0.3c0,0.1-2.3,8.8-0.2,10.2c1.6,0.6,14.9,0.8,15.8,2.5c-3,1.9-10.4,2.5-18.4,2.6l0,0c-8,0-15.4-0.7-18.4-2.6
	c0.9-1.6,14.2-1.8,15.8-2.5c2.1-1.4-0.2-10.2-0.2-10.2c0-0.1,0-0.2-0.1-0.3c-0.1-0.3-0.6-0.2-0.6-0.2c-12.6-2.1-23.6-12.2-17-28.8
	c4-8,10.3-23.4,6.8-33.6L47.3,24.8L47.3,24.8z"/>
<path class="st8" d="M36.2,98c-2.1-1.4,0.2-10.2,0.2-10.2c0-0.1,0-0.2,0.1-0.3c0.1-0.3,0.6-0.2,0.6-0.2c1.4-0.2,2.9-0.6,4.3-1
	c-0.7-0.9-1.3-1.8-1.9-2.8c-0.2-0.3-0.5-0.5-0.7-0.8c-3.4-3.6-6.2-7.8-8.1-12.4c-1.1-2.7-1.8-5.6-2.3-8.5c-0.1-0.6-0.2-1.3-0.3-1.9
	c-0.1-0.6-0.1-1.3-0.1-1.9c0-0.4,0-0.7,0-1.1c-0.3-1.4-0.4-2.8-0.4-4.2c-0.5-2.3-0.7-4.6-0.8-7c-0.4-1.7-0.8-3.3-1.2-5
	c-0.3-1-0.6-2-0.8-3c0,0,0-0.1,0-0.1c-0.8-3-1.9-5.9-3-8.8c-0.5-1.2-1-2.5-1.6-3.6c3.3,10.2-2.9,25.4-6.9,33.4
	c-6.6,16.6,4.4,26.7,17,28.8c0,0,0.5-0.1,0.6,0.2c0.1,0.1,0.1,0.2,0.1,0.3c0,0.1,2.3,8.8,0.2,10.2c-1.6,0.6-14.9,0.8-15.8,2.5
	c3,1.9,10.4,2.5,18.4,2.6l0,0c8,0,15.4-0.7,18.4-2.6C51.1,98.8,37.7,98.6,36.2,98L36.2,98z"/>
<path class="st9" d="M21.2,40.5c-0.7,0.3-1,1.3-1.2,2c-0.3,1.3-0.7,2.8-1.7,6c-1.7,5.4-2.3,5.2-4.8,11.3c-1.4,3.4-1.7,6-1.5,9.7
	c0.2,2.5,0.7,4.2,2.2,6.8c2.3,4.1,5.5,6.1,8,7.4c1.6,0.8,4.5,2.4,8.6,2.9c7.3,0.9,12.8-2,14.5-2.9c1.7-0.9,4.1-2.3,6.3-4.9
	c1.2-1.5,3.2-4.5,3.8-8.7c0.7-5.6-1.4-10.2-2.2-11.8c-0.3-0.7-0.2-0.3-0.6-1.2c-2.8-6.1-0.9-1.7-3.6-8.7c-0.3-0.8-0.4-1.2-0.4-1.3
	c-1.2-3.6-1.9-6.8-1.9-6.8l0,0c0,0-0.1,0-0.4,0.1c-4.7,1.6-15,0.9-15,0.9C22.4,40.3,22.4,39.9,21.2,40.5z"/>
<path class="st10" d="M51.8,59.4c-1.2-0.5-2.5-0.8-3.9-1.1c-3.1-0.6-6.3,0.2-9.3,1c-3.4,0.9-6.7,1.5-10.2,1.7
	c-3.3,0.2-6.9,0.1-10.1-0.8c-1.5-0.4-2.9-1.1-4.4-1.6c-0.2,0.4-0.3,0.8-0.5,1.3c-1.4,3.4-1.7,6-1.5,9.7c0.2,2.5,0.7,4.2,2.2,6.8
	c2.3,4.1,5.5,6.1,8,7.4c0.3,0.2,0.7,0.4,1.2,0.6c1.6-0.3,3.2-0.7,4.7-1.1c6-1.6,10.3-6.9,14.6-11.1c2-1.9,4.1-3.6,6.5-4.9
	c1.9-1,4-1.6,6.2-1.9c-0.2-2-0.7-3.6-1.2-5C53.5,60,52.6,59.7,51.8,59.4L51.8,59.4z"/>
<path class="st11" d="M48.4,69.5c-4.7,3.1-8.2,7.7-12.5,11.2c-2.7,2.1-5.5,3.6-8.9,4.3c-0.5,0.1-0.9,0.2-1.4,0.3
	c1.4,0.5,3.2,1.1,5.2,1.3c7.3,0.9,12.8-2,14.5-2.9c1.7-0.9,4.1-2.3,6.3-4.9c1.2-1.5,3.2-4.5,3.8-8.7c0.1-1.1,0.2-2.2,0.1-3.2
	C52.9,67.3,50.6,68.1,48.4,69.5L48.4,69.5z"/>
<path class="st12" d="M41.6,71.6c-0.3-1.3-1.5-2.1-2.8-2.1c-1.2,0-2.3,0.9-2.7,2.1"/>
<path class="st12" d="M24.4,71.8c-0.3-1.3-1.5-2.1-2.8-2.1c-1.2,0-2.3,0.9-2.7,2.1"/>
<path class="st13" d="M24.7,74.3c-0.4,0.5,0.5,4.4,4.8,4.4s7-3.5,6.7-4.7c-0.4-1.6-2.3,1-6.7,1S25.3,73.4,24.7,74.3L24.7,74.3z"/>
<path class="st14" d="M30.3,78.5c0,0,0-0.3,0.3-0.7c0,0,0.4-0.6,1.6-1.2c0.4-0.2,1.2-0.4,1.6-0.6c0.4-0.1,1,0.3,1,0.3l0.1,0.1
	l-0.2,0.2L34.2,77l-0.5,0.4l-0.9,0.5l-1.3,0.5l-0.8,0.2l-0.5,0.1L30.3,78.5L30.3,78.5z"/>
</svg>
